<!DOCTYPE svg PUBLIC "-//W3C//DTD SVG 20010904//EN" "http://www.w3.org/TR/2001/REC-SVG-20010904/DTD/svg10.dtd">
<svg version="1.0" xmlns="http://www.w3.org/2000/svg" width="813px" height="813px" viewBox="0 0 8130 8130" preserveAspectRatio="xMidYMid meet">
<g id="layer101" fill="#aa182c" stroke="none">
 <path d="M0 4065 l0 -4065 4065 0 4065 0 0 4065 0 4065 -4065 0 -4065 0 0 -4065z"/>
 </g>
<g id="layer102" fill="#fdfafa" stroke="none">
 <path d="M4422 7273 l3 -188 30 -3 c18 -2 33 2 41 12 10 14 13 15 24 1 16 -19 82 -20 119 0 68 35 83 175 26 235 -36 38 -86 48 -131 26 l-34 -16 0 60 0 60 -40 0 -40 0 2 -187z m178 17 c14 -14 20 -33 20 -67 0 -55 -21 -83 -61 -83 -37 0 -59 33 -59 87 0 48 26 83 60 83 11 0 29 -9 40 -20z"/>
 <path d="M1235 7357 c-34 -16 -50 -32 -59 -64 -7 -21 -4 -23 31 -23 28 0 42 6 51 21 18 28 87 24 87 -6 0 -15 -11 -23 -45 -33 -76 -21 -115 -45 -118 -71 -10 -67 31 -101 123 -101 49 0 60 4 86 29 16 16 29 37 29 45 0 25 -61 21 -83 -5 -21 -24 -70 -23 -75 2 -3 17 17 27 95 48 74 20 94 77 46 131 -23 26 -37 32 -83 36 -35 3 -66 -1 -85 -9z"/>
 <path d="M1663 7356 c-18 -8 -33 -11 -33 -6 0 6 -18 10 -40 10 l-40 0 0 -190 0 -190 40 0 40 0 0 66 0 65 22 -15 c32 -23 100 -20 130 4 37 29 51 71 46 140 -4 51 -9 66 -34 91 -36 36 -86 45 -131 25z m67 -66 c26 -26 28 -105 3 -132 -23 -25 -68 -23 -87 4 -23 32 -20 90 5 122 24 31 52 33 79 6z"/>
 <path d="M2020 7352 c-93 -49 -93 -209 -1 -257 17 -8 51 -15 76 -15 37 0 52 6 81 33 29 26 37 42 41 80 l6 47 -97 0 c-88 0 -96 2 -96 19 0 22 35 51 61 51 9 0 28 -9 42 -20 25 -20 87 -28 87 -11 0 18 -45 64 -76 77 -45 19 -83 18 -124 -4z m120 -175 c0 -36 -65 -51 -94 -21 -27 26 -18 34 39 34 38 0 55 -4 55 -13z"/>
 <path d="M2403 7359 c-34 -10 -63 -42 -63 -71 0 -27 61 -25 78 3 18 28 87 24 87 -6 0 -16 -13 -24 -62 -40 -105 -34 -130 -80 -74 -136 26 -25 37 -29 86 -29 80 0 125 27 125 76 0 23 -63 18 -78 -6 -13 -21 -47 -26 -71 -11 -24 15 3 38 59 51 68 16 100 43 100 84 0 43 -24 73 -68 86 -44 12 -75 12 -119 -1z"/>
 <path d="M3054 7351 c-93 -42 -100 -196 -12 -251 51 -32 139 -24 179 17 71 70 51 202 -36 239 -46 19 -82 17 -131 -5z m106 -59 c18 -14 23 -30 24 -64 1 -55 -23 -88 -65 -88 -37 0 -59 33 -59 87 0 72 51 105 100 65z"/>
 <path d="M3444 7356 c-32 -14 -64 -51 -64 -73 0 -8 14 -13 40 -13 28 0 40 4 40 14 0 29 84 37 94 9 9 -23 -3 -32 -70 -49 -70 -19 -94 -37 -94 -75 0 -63 37 -89 125 -89 49 0 60 4 86 29 16 16 29 37 29 45 0 25 -61 21 -83 -5 -23 -27 -72 -23 -72 6 0 16 13 23 65 36 39 11 71 26 82 39 66 81 -67 174 -178 126z"/>
 <path d="M4053 7351 c-43 -20 -73 -62 -73 -101 0 -17 6 -20 40 -20 27 0 40 4 40 13 0 27 45 57 86 57 45 0 64 -14 64 -46 0 -23 -29 -38 -123 -64 -66 -18 -101 -60 -94 -113 3 -21 16 -50 28 -63 65 -69 221 -50 255 31 18 44 12 55 -30 55 -24 0 -38 -7 -54 -30 -17 -23 -30 -30 -56 -30 -37 0 -60 19 -54 47 3 17 38 33 115 53 24 6 55 21 70 34 24 21 28 32 28 74 0 39 -5 56 -23 75 -45 48 -146 60 -219 28z"/>
 <path d="M4893 7355 c-85 -37 -104 -172 -32 -241 22 -21 40 -28 81 -31 84 -6 134 34 145 115 l6 42 -97 0 c-88 0 -96 2 -96 19 0 48 58 66 103 31 28 -22 77 -27 77 -7 0 23 -32 59 -66 73 -42 17 -80 17 -121 -1z m117 -171 c0 -3 -5 -14 -10 -25 -19 -35 -100 -21 -100 18 0 9 17 13 55 13 30 0 55 -3 55 -6z"/>
 <path d="M5280 7352 c-69 -36 -93 -145 -47 -213 32 -48 62 -60 130 -56 62 4 98 28 112 75 6 20 3 22 -32 22 -27 0 -42 -6 -51 -20 -17 -28 -66 -27 -86 2 -23 33 -21 103 4 128 32 32 66 25 89 -17 9 -17 21 -23 47 -23 34 0 36 1 29 28 -9 36 -33 62 -72 78 -44 19 -82 17 -123 -4z"/>
 <path d="M5864 7360 c-28 -11 -54 -48 -54 -77 0 -41 40 -72 110 -85 59 -12 65 -15 65 -38 0 -21 -5 -26 -32 -28 -24 -2 -35 2 -45 17 -16 27 -94 31 -84 5 3 -9 6 -20 6 -25 0 -5 15 -18 33 -29 48 -29 147 -28 181 3 23 21 25 29 28 140 l3 117 -37 0 c-21 0 -38 -4 -38 -9 0 -6 -16 -3 -35 5 -38 16 -69 17 -101 4z m115 -64 c7 -8 11 -25 9 -38 -3 -22 -6 -23 -45 -15 -41 8 -63 33 -48 57 9 15 71 12 84 -4z"/>
 <path d="M6704 7356 c-32 -14 -64 -51 -64 -73 0 -8 14 -13 40 -13 28 0 40 4 40 14 0 29 84 37 94 9 9 -23 -3 -32 -70 -49 -32 -9 -67 -23 -76 -31 -24 -21 -23 -75 1 -104 17 -21 27 -24 96 -24 72 0 78 2 101 28 34 40 31 57 -9 57 -21 0 -39 -8 -50 -21 -23 -27 -72 -23 -72 6 0 16 13 23 65 36 76 20 105 48 96 93 -8 38 -24 56 -63 73 -41 16 -89 16 -129 -1z"/>
 <path d="M7344 7356 c-32 -14 -64 -51 -64 -73 0 -8 14 -13 39 -13 30 0 40 4 44 20 7 25 68 28 88 4 18 -22 -3 -37 -74 -53 -64 -14 -90 -39 -89 -83 1 -54 31 -73 117 -73 80 0 105 13 120 63 6 20 3 22 -34 22 -30 0 -41 -4 -41 -15 0 -17 -42 -30 -66 -21 -8 3 -14 13 -12 23 3 16 17 23 96 43 34 9 46 18 59 44 13 29 14 37 2 62 -27 55 -117 79 -185 50z"/>
 <path d="M710 7356 c0 -2 23 -64 51 -138 28 -73 60 -157 71 -185 19 -53 20 -53 63 -53 31 0 45 5 50 18 4 9 33 87 65 172 32 85 61 163 65 173 6 15 1 17 -39 17 -44 0 -45 -1 -57 -40 l-12 -40 -73 0 -73 0 -12 40 c-12 39 -14 40 -56 40 -23 0 -43 -2 -43 -4z m208 -207 c-11 -33 -24 -57 -28 -52 -6 7 -40 100 -40 110 0 2 20 3 44 3 l45 0 -21 -61z"/>
 <path d="M2757 7342 c-13 -15 -17 -39 -17 -110 l0 -92 -26 0 c-22 0 -25 -4 -22 -27 2 -20 9 -29 26 -31 19 -3 22 -10 22 -43 l0 -40 38 3 c35 3 37 5 40 41 3 32 7 37 28 37 20 0 24 5 24 30 0 25 -4 30 -25 30 -25 0 -25 1 -25 80 0 79 0 80 25 80 21 0 25 5 25 30 0 29 -1 30 -48 30 -35 0 -54 -5 -65 -18z"/>
 <path d="M5610 7219 l0 -140 38 3 37 3 3 138 3 137 -41 0 -40 0 0 -141z"/>
 <path d="M6210 7170 l0 -190 40 0 40 0 0 190 0 190 -40 0 -40 0 0 -190z"/>
 <path d="M6432 7223 l3 -138 38 -3 37 -3 0 140 0 141 -40 0 -41 0 3 -137z"/>
 <path d="M7056 7338 c-12 -16 -16 -47 -16 -110 0 -81 -2 -88 -20 -88 -16 0 -20 -7 -20 -30 0 -23 4 -30 20 -30 17 0 20 -7 20 -40 l0 -40 40 0 c40 0 40 0 40 39 0 36 3 40 28 43 21 2 27 8 27 28 0 20 -6 26 -28 28 l-28 3 3 77 c3 76 3 77 31 80 23 3 27 8 27 33 0 29 -1 29 -54 29 -45 0 -58 -4 -70 -22z"/>
 <path d="M5610 7016 c0 -35 1 -36 41 -36 39 0 40 1 37 33 -3 29 -6 32 -40 35 -37 3 -38 3 -38 -32z"/>
 <path d="M6437 7043 c-4 -3 -7 -19 -7 -35 0 -26 3 -28 40 -28 39 0 40 1 40 35 0 33 -2 35 -33 35 -19 0 -37 -3 -40 -7z"/>
 <path d="M1322 6659 c-316 -41 -545 -198 -640 -439 -66 -168 -73 -282 -70 -1065 l3 -630 233 -3 232 -2 0 687 c0 404 5 717 10 758 14 92 50 164 111 219 70 63 140 87 270 93 131 7 225 -9 301 -49 68 -36 103 -78 137 -167 l26 -66 3 -738 3 -737 232 2 232 3 3 660 c3 689 -2 812 -38 944 -82 293 -306 473 -657 526 -104 16 -287 18 -391 4z"/>
 <path d="M5040 6649 c-289 -32 -437 -209 -401 -480 20 -151 83 -244 204 -304 94 -46 182 -62 445 -79 302 -20 374 -39 424 -108 21 -30 23 -43 23 -158 0 -114 -2 -130 -26 -181 -47 -99 -138 -166 -258 -189 -145 -27 -350 -1 -449 56 -104 61 -181 178 -203 307 -11 65 -12 67 -40 67 -25 0 -29 -4 -29 -28 0 -100 67 -247 148 -324 110 -105 239 -150 427 -150 187 0 302 39 388 131 60 64 93 135 107 226 5 40 10 291 10 577 l0 507 26 20 c21 17 41 21 95 21 l69 0 0 30 0 30 -70 0 c-41 0 -86 -7 -110 -16 -60 -24 -73 -57 -78 -193 l-4 -113 -28 51 c-43 78 -86 127 -155 176 -143 103 -322 146 -515 124z m314 -87 c140 -51 255 -148 318 -268 56 -107 68 -171 68 -377 l0 -179 -30 26 c-65 54 -141 67 -550 96 -80 5 -167 16 -195 24 -113 30 -189 87 -232 174 -26 53 -28 66 -28 177 0 114 1 123 30 173 44 81 121 138 225 167 84 23 316 16 394 -13z"/>
 <path d="M6500 6650 c-220 -23 -374 -112 -442 -256 -32 -69 -58 -177 -58 -246 0 -46 1 -48 29 -48 28 0 29 1 36 72 20 203 117 330 300 390 62 21 88 23 240 22 149 0 177 -3 229 -22 121 -45 198 -109 239 -201 30 -65 29 -180 -2 -244 -54 -111 -148 -160 -456 -237 -383 -96 -467 -136 -522 -247 -25 -53 -28 -68 -28 -163 0 -95 3 -111 28 -162 74 -150 244 -232 482 -230 244 1 421 85 493 233 24 50 52 164 52 217 0 32 -2 33 -32 30 l-33 -3 -7 -70 c-8 -87 -35 -151 -89 -210 -56 -61 -109 -91 -204 -115 -87 -22 -245 -27 -335 -10 -119 22 -228 98 -272 188 -18 38 -23 63 -23 132 1 97 21 148 77 195 64 54 97 66 501 174 223 60 298 94 366 166 72 76 85 111 85 230 1 94 -1 105 -31 166 -76 154 -231 236 -473 252 -41 3 -109 1 -150 -3z"/>
 <path d="M2730 5570 l0 -1050 230 0 230 0 0 431 c0 239 4 429 9 427 4 -1 189 -195 411 -430 l402 -428 290 0 290 0 -411 416 -411 417 19 26 c10 14 210 297 445 628 234 332 426 605 426 608 0 3 -130 5 -288 5 l-288 0 -314 -470 -315 -469 -132 132 -133 132 0 337 0 338 -230 0 -230 0 0 -1050z"/>
 <path d="M7360 5570 l0 -1050 30 0 30 0 0 1050 0 1050 -30 0 -30 0 0 -1050z"/>
 <path d="M6670 4450 c0 -6 -11 -8 -25 -4 -39 10 -32 -23 10 -47 19 -12 35 -25 35 -30 0 -5 12 -19 26 -32 15 -12 33 -37 40 -54 8 -18 19 -33 24 -33 6 0 10 -7 10 -15 0 -15 5 -16 99 -19 37 -1 45 -5 53 -25 8 -24 8 -24 -10 -8 -24 22 -57 22 -79 0 -11 -11 -29 -17 -45 -15 -20 2 -28 -1 -28 -12 0 -18 -25 -22 -35 -6 -11 18 -53 11 -69 -12 -15 -21 -14 -24 3 -42 11 -10 41 -31 68 -45 45 -24 48 -29 50 -68 2 -40 -16 -71 -25 -45 -4 13 -52 17 -52 5 0 -14 15 -29 33 -36 23 -8 22 -24 -3 -37 -27 -15 -25 -29 6 -40 19 -8 29 -6 41 6 12 11 26 14 57 9 54 -9 61 -18 59 -70 -1 -25 3 -47 8 -50 5 -4 9 -14 8 -23 0 -16 -1 -16 -11 0 -11 14 -13 14 -30 -7 -10 -13 -18 -30 -18 -39 0 -9 -4 -16 -10 -16 -15 0 -12 -43 6 -68 8 -12 10 -22 5 -22 -6 0 -11 3 -11 8 0 11 -58 34 -69 28 -5 -4 -11 -1 -13 6 -4 10 -10 10 -31 1 -25 -12 -27 -11 -27 9 0 20 -1 20 -20 3 -11 -10 -22 -26 -25 -35 -5 -16 21 -75 48 -108 7 -9 7 -16 1 -20 -6 -4 -13 -15 -17 -25 -10 -28 -24 -12 -19 23 4 31 -6 38 -26 18 -9 -9 -12 -7 -12 9 0 23 -22 37 -37 22 -6 -6 -5 -28 4 -62 16 -64 16 -92 -2 -52 -7 17 -24 40 -37 53 l-25 22 -19 -21 c-19 -21 -19 -21 1 -37 11 -10 20 -26 20 -36 0 -11 6 -21 14 -24 10 -3 11 2 6 18 -7 23 -7 23 19 4 37 -27 33 -44 -8 -37 -19 3 -36 1 -40 -6 -4 -6 -2 -11 3 -11 13 0 14 -10 1 -30 -7 -12 -12 -12 -29 4 -12 11 -27 16 -37 12 -13 -5 -7 -13 27 -36 24 -16 49 -30 55 -30 6 0 18 -7 25 -17 12 -14 12 -17 0 -21 -7 -2 -32 -22 -55 -44 l-41 -40 23 -18 c12 -10 22 -23 22 -29 0 -24 21 -9 26 18 4 17 16 38 27 48 15 12 18 13 10 2 -19 -25 -5 -89 23 -101 13 -6 21 -14 19 -18 -5 -8 23 -100 35 -113 3 -4 24 -4 46 1 26 6 56 4 89 -5 67 -17 73 -17 77 10 3 16 -10 36 -46 75 -28 28 -45 52 -38 52 9 0 10 5 2 19 -16 30 -12 33 20 16 41 -21 173 -21 194 1 20 19 20 28 1 44 -8 7 -15 22 -15 33 0 19 -36 100 -63 141 -9 15 -9 20 1 23 21 8 13 21 -20 34 -18 7 -42 16 -53 20 -11 5 7 6 40 3 l61 -5 45 48 c30 32 52 68 63 104 18 53 54 99 81 99 17 0 71 62 80 92 4 13 16 35 27 51 12 16 15 27 8 27 -7 0 2 16 20 36 l31 36 -21 23 c-26 27 -9 46 19 21 23 -21 66 -20 117 3 33 15 42 25 46 50 2 17 1 36 -4 43 -4 7 -8 22 -8 34 0 11 -16 37 -35 58 -19 21 -35 42 -35 46 0 4 -7 10 -15 14 -8 3 -15 13 -15 22 0 11 5 14 18 9 9 -3 29 -9 44 -12 23 -5 28 -1 34 23 5 19 3 29 -6 32 -8 3 -24 16 -37 30 -13 14 -23 21 -23 17 0 -4 -12 1 -27 11 -25 16 -63 22 -170 26 -24 1 -33 6 -33 19 0 26 -26 30 -54 8 -21 -17 -26 -17 -33 -5 -9 16 -66 21 -119 10 -37 -7 -74 10 -74 34 0 9 -7 25 -14 35 -13 16 -19 17 -55 6 -35 -10 -46 -10 -80 6 -22 9 -41 26 -44 36 -5 20 -37 27 -37 9z"/>
 <path d="M6120 4175 c0 -9 -9 -15 -21 -15 -18 0 -20 -2 -8 -16 13 -15 6 -26 -24 -37 -14 -4 4 -37 22 -38 11 0 9 -3 -6 -9 -33 -14 -28 -28 12 -36 20 -3 34 -9 31 -12 -3 -3 -1 -11 5 -19 6 -7 8 -13 3 -13 -4 0 4 -12 17 -27 14 -16 30 -40 37 -55 10 -23 9 -28 -3 -28 -8 0 -15 5 -15 10 0 19 -21 10 -29 -14 -5 -13 -17 -26 -25 -29 -23 -9 -20 -48 4 -54 26 -7 25 -30 -2 -53 -22 -17 -22 -19 -5 -26 14 -5 15 -9 6 -15 -10 -6 -10 -11 1 -24 12 -15 26 -16 90 -11 67 6 78 5 93 -12 17 -19 17 -20 -8 -26 -30 -8 -32 -26 -5 -46 11 -8 20 -19 20 -25 0 -21 49 -57 80 -60 17 -1 33 -5 37 -9 11 -11 40 -6 53 9 10 12 24 14 56 9 40 -6 44 -4 49 19 4 14 15 33 26 43 10 9 19 23 19 31 0 7 4 13 9 13 5 0 13 9 16 20 8 24 -18 70 -40 70 -7 0 -17 9 -20 21 -4 11 -15 23 -26 27 -17 7 -17 10 -4 36 17 32 19 62 6 70 -5 4 -3 20 6 38 14 26 14 36 3 62 -7 17 -18 50 -24 74 -10 38 -13 42 -43 42 -17 0 -35 4 -38 10 -3 5 -19 7 -35 3 -19 -3 -30 -1 -30 6 0 6 -12 16 -27 22 -16 6 -48 22 -73 37 -57 34 -121 54 -135 42 -6 -5 -17 -5 -25 0 -21 14 -30 12 -30 -5z"/>
 <path d="M6727 3701 c-6 -23 18 -61 39 -61 22 0 17 34 -10 59 -23 22 -24 22 -29 2z"/>
 <path d="M6423 3160 c0 -22 4 -43 8 -46 5 -3 4 -14 -2 -25 -12 -23 -7 -32 21 -36 23 -3 36 15 21 30 -6 6 -11 28 -11 49 0 21 -4 38 -10 38 -5 0 -10 7 -10 15 0 8 -4 15 -9 15 -4 0 -8 -18 -8 -40z"/>
 <path d="M6540 3184 c0 -17 22 -14 28 4 2 7 -3 12 -12 12 -9 0 -16 -7 -16 -16z"/>
 <path d="M6477 3043 c-10 -20 -7 -93 4 -93 7 0 27 -11 45 -25 40 -31 40 -31 48 -1 7 29 -17 79 -51 106 -27 21 -39 25 -46 13z"/>
 <path d="M6849 2848 c-3 -28 4 -53 15 -60 6 -4 11 -13 11 -20 0 -8 10 -12 24 -10 13 1 29 -5 36 -14 9 -13 14 -14 19 -5 4 6 2 18 -4 26 -7 8 -9 22 -6 31 4 12 2 15 -9 10 -10 -4 -15 1 -15 14 0 13 -7 20 -20 20 -11 0 -20 5 -20 10 0 15 -30 12 -31 -2z"/>
 </g>

</svg>