<?xml version="1.0" encoding="utf-8"?>
<!-- Generator: Adobe Illustrator 17.1.0, SVG Export Plug-In . SVG Version: 6.00 Build 0)  -->
<!DOCTYPE svg PUBLIC "-//W3C//DTD SVG 1.1//EN" "http://www.w3.org/Graphics/SVG/1.1/DTD/svg11.dtd">
<svg version="1.1" id="Layer_1" xmlns="http://www.w3.org/2000/svg" xmlns:xlink="http://www.w3.org/1999/xlink" x="0px" y="0px"
	 viewBox="188.5823211669922 89.1996841430664 486.04266357421875 230.04470825195312" enable-background="new 0 0 863.2 408.7" xml:space="preserve">
<path d="M674.4,133.4c-0.1-13.2-6.4-23.8-16.3-32.4c-10.7-9.2-23.7-11.8-37.3-11.8c-113.7,0-227.3,0-341,0c-13.4,0-26.8,0-40.1,0
	c-31.7-0.1-51.8,24.7-51.1,51.5c1.1,42.5,0.3,85.1,0.3,127.7c0,31.2,19.8,50.8,51,50.8c63.9,0,127.9,0,191.8,0c4.3,0,8.4,0,12.7,0
	c60.6,0,121.2,0.1,181.8,0c26.1,0,48-19.7,48.2-44.1C674.7,228,674.7,180.8,674.4,133.4z M326.8,228.3c-0.3,7.4-0.1,14.7,0,22.1
	c0,2.9-0.8,5.1-3.6,6.6c-22.2,11.4-61.7,13.6-84.9-3.9c-17.5-13.2-24.1-31.7-22.2-53c2.1-23.1,14.2-39.6,35.8-48.3
	c22.7-9.1,45.7-7.6,68.6,0c3.9,1.3,5.2,3.7,5.1,7.5c-0.1,4.3,0,8.4,0,12.7c0,3.7,0,7.6,0,11.4c-0.1,7.2-0.3,7.4-6.3,3.7
	c-10.3-6.2-21.3-9-33.2-8c-15.4,1.2-26,11.6-26.1,26.1c-0.1,14.8,10.8,26.2,26.4,27.4c12.2,0.9,23.5-1.9,34-7.9
	C325.2,221.7,326.9,222.5,326.8,228.3z M426.6,235.4c-2,13.8-10.3,23.1-23.5,27.3c-19.5,6-38.8,3.1-57.7-3.7c-3.3-1.2-4.1-3.6-4-6.8
	c0.1-7.6,0.1-15.1,0-22.7c-0.1-5.2,1.2-6.7,6-3.5c7.5,5.1,15.5,8.8,24.6,9.5c1.6,0.1,3.1,0.3,4.7,0c3.2-0.4,6.3-1.3,7.1-4.9
	c0.8-3.3-1.2-5.6-3.7-7.2c-5.4-3.2-10.8-6.2-16.2-9.2c-9.4-5.4-17.4-11.8-20.6-22.6c-5.4-18.1,4.3-36.9,22.3-42.8
	c18.2-5.9,35.6-3.6,52,6.4c3.9,2.3,5.6,5.4,5.5,9.8c-0.3,8.8,0,17.8,0,28.2c-7.8-5.8-13.4-11.6-20.9-14.8c-3.7-1.6-7.5-3.1-11.6-2.4
	c-3.2,0.4-6.2,1.5-7.1,5.1c-0.8,3.3,0.8,5.8,3.3,7.5c3.1,2.1,6.4,4,9.6,5.9c5.2,3.1,10.6,5.8,15.7,9.1
	C423.1,210.9,428.7,221.6,426.6,235.4z M547.3,227.9c-0.3,7.4-0.1,14.7,0,22.1c0,3.2-0.7,5.8-3.9,7.1c-26.8,11.2-53.8,13.6-79.9-0.9
	c-21.9-12.2-29.3-33-27-56.8c2.1-23.1,14.8-39.3,36.5-47.8c22.3-8.7,44.9-7.2,67.4,0.1c3.9,1.3,5.9,3.5,5.6,7.9
	c-0.3,4.3,0,8.4,0,12.7s-0.1,8.4,0,12.7c0.1,4.7-1.2,5.5-5.4,3.1c-10-6.2-20.9-9.6-33-9c-16.7,1.1-27.3,11.2-27.3,26.8
	c0,15.4,10.8,25.8,27.4,26.9c12,0.8,23-2.4,33.2-8.3C545.6,221.6,547.6,222.4,547.3,227.9z M642.3,237.5
	c-3.1,14.2-15,23.9-31.6,25.4c-12,1.1-23.9-0.3-35.7-3.5c-6.6-1.9-10.3-4.8-8.8-12c0.3-1.3,0-2.7,0-4c0-13.1,0-13.1,11.9-8.7
	c6.6,2.4,13.2,3.9,20.3,3.2c4.7-0.5,9-2.1,10.2-7.2c1.1-4.7-2.3-7.5-5.8-9.6c-7.5-4.8-15.9-8-23-13.5c-10.7-8.2-15.5-19-12.8-32.2
	c2.7-13.5,11.2-21.9,24.5-25.5c8-2.3,16.3-2,24.5-0.5c2,0.3,3.9,0.9,5.8,1.6c16.5,5.4,20.9,13.2,17,30.2c-1.1,4.5-3.2,1.6-4.7,0.7
	c-6.7-4.7-13.6-8.4-22.2-8c-5.1,0.1-10.3,0.7-12,6.4c-2,6.2,2.4,9.5,7,12.2c6,3.5,12.2,6.6,18.1,10
	C639.9,211.1,645.5,222.8,642.3,237.5z" stroke="none" fill="#2178c0" fill-rule="evenodd"/>
</svg>
