<?xml version="1.0" encoding="UTF-8" standalone="no"?>
<!-- Created with Inkscape (http://www.inkscape.org/) -->

<svg
   xmlns:dc="http://purl.org/dc/elements/1.1/"
   xmlns:cc="http://creativecommons.org/ns#"
   xmlns:rdf="http://www.w3.org/1999/02/22-rdf-syntax-ns#"
   xmlns:svg="http://www.w3.org/2000/svg"
   xmlns="http://www.w3.org/2000/svg"
   version="1.1"
   width="300"
   height="163.00783"
   id="svg2">
  <defs
     id="defs4" />
  <metadata
     id="metadata7">
    <rdf:RDF>
      <cc:Work
         rdf:about="">
        <dc:format>image/svg+xml</dc:format>
        <dc:type
           rdf:resource="http://purl.org/dc/dcmitype/StillImage" />
        <dc:title></dc:title>
      </cc:Work>
    </rdf:RDF>
  </metadata>
  <g
     transform="translate(-249.98737,-395.13906)"
     id="layer1">
    <g
       transform="matrix(2.6104216,0,0,-2.6104216,200.19138,1914.0715)"
       id="g3907">
      <path
         d="m 19.842,523.6038 1.3635,0 0,57.5025 -1.3635,0 0,-57.5025 z"
         id="path34"
         style="fill:#782f9a;fill-opacity:1;fill-rule:nonzero;stroke:none" />
      <g
         id="g3880">
        <path
           d="m 29.5599,541.9647 2.566,0 c 1.0557,0 3.8977,0.2923 3.8977,4.5632 0,2.7614 -1.023,4.4341 -3.8652,4.4341 l -2.5985,0 0,-8.9973 z m -1.543,10.2965 3.9791,0 c 3.573,0 5.5706,-1.7865 5.5706,-5.5217 0,-3.8814 -1.7054,-6.0745 -5.5706,-6.0745 l -3.9791,0"
           id="path36"
           style="fill:#231f20;fill-opacity:1;fill-rule:nonzero;stroke:none" />
        <path
           d="m 39.0265,549.0618 1.3805,0 0,-8.3968 -1.3805,0 0,8.3968 z m 1.3805,1.5104 -1.3805,0 0,1.689 1.3805,0"
           id="path38"
           style="fill:#231f20;fill-opacity:1;fill-rule:nonzero;stroke:none" />
        <path
           d="m 42.9958,543.3125 c 0.0487,-1.2343 1.1205,-1.6241 2.2574,-1.6241 0.8608,0 2.03,0.1949 2.03,1.2504 0,1.0719 -1.3642,1.2507 -2.7446,1.5591 -1.3642,0.3087 -2.7447,0.7638 -2.7447,2.3715 0,1.6887 1.6727,2.3872 3.1344,2.3872 1.8515,0 3.3294,-0.5844 3.4432,-2.6313 l -1.3805,0 c -0.0974,1.0722 -1.0394,1.4132 -1.9489,1.4132 -0.8283,0 -1.7865,-0.2275 -1.7865,-1.0716 0,-0.9906 1.4616,-1.1533 2.7447,-1.4617 1.3805,-0.3088 2.7446,-0.7632 2.7446,-2.3876 0,-1.9975 -1.8677,-2.6474 -3.5729,-2.6474 -1.884,0 -3.4755,0.7634 -3.5567,2.8423"
           id="path40"
           style="fill:#231f20;fill-opacity:1;fill-rule:nonzero;stroke:none" />
        <path
           d="m 55.6344,546.3658 c -0.2113,1.0555 -0.942,1.6727 -2.0788,1.6727 -1.9978,0 -2.6149,-1.5752 -2.6149,-3.2804 0,-1.5431 0.6983,-3.0697 2.4525,-3.0697 1.3317,0 2.1274,0.7793 2.3062,2.0463 l 1.4128,0 c -0.3084,-2.0463 -1.5916,-3.2645 -3.703,-3.2645 -2.5659,0 -3.9302,1.7868 -3.9302,4.2879 0,2.5172 1.2992,4.4985 3.9627,4.4985 1.9004,0 3.427,-0.8933 3.6219,-2.8908"
           id="path42"
           style="fill:#231f20;fill-opacity:1;fill-rule:nonzero;stroke:none" />
        <path
           d="m 58.3465,540.665 1.3803,0 0,11.5962 -1.3803,0 0,-11.5962 z"
           id="path44"
           style="fill:#231f20;fill-opacity:1;fill-rule:nonzero;stroke:none" />
        <path
           d="m 65.0781,541.6884 c 1.4453,0 2.6146,1.1369 2.6146,3.1671 0,2.0461 -1.1693,3.183 -2.6146,3.183 -1.4456,0 -2.6149,-1.1369 -2.6149,-3.183 0,-2.0302 1.1693,-3.1671 2.6149,-3.1671 z m 0,7.5682 c 2.6635,0 4.0763,-1.9327 4.0763,-4.4011 0,-2.4525 -1.4128,-4.3853 -4.0763,-4.3853 -2.6635,0 -4.0766,1.9328 -4.0766,4.3853 0,2.4684 1.4131,4.4011 4.0766,4.4011"
           id="path46"
           style="fill:#231f20;fill-opacity:1;fill-rule:nonzero;stroke:none" />
        <path
           d="m 71.2592,543.3125 c 0.0489,-1.2343 1.1204,-1.6241 2.2576,-1.6241 0.8606,0 2.03,0.1949 2.03,1.2504 0,1.0719 -1.3642,1.2507 -2.7446,1.5591 -1.3642,0.3087 -2.7448,0.7638 -2.7448,2.3715 0,1.6887 1.6726,2.3872 3.1346,2.3872 1.8515,0 3.3293,-0.5844 3.4431,-2.6313 l -1.3806,0 c -0.0975,1.0722 -1.0395,1.4132 -1.949,1.4132 -0.8281,0 -1.7865,-0.2275 -1.7865,-1.0716 0,-0.9906 1.4617,-1.1533 2.7449,-1.4617 1.3803,-0.3088 2.7446,-0.7632 2.7446,-2.3876 0,-1.9975 -1.8679,-2.6474 -3.573,-2.6474 -1.884,0 -3.4756,0.7634 -3.5566,2.8423"
           id="path48"
           style="fill:#231f20;fill-opacity:1;fill-rule:nonzero;stroke:none" />
        <path
           d="m 85.0965,540.665 -1.2993,0 0,1.3318 -0.0325,0 c -0.5847,-1.0394 -1.5266,-1.5266 -2.7285,-1.5266 -2.2087,0 -2.8909,1.2671 -2.8909,3.0697 l 0,5.5219 1.3807,0 0,-5.684 c 0,-1.0234 0.6496,-1.6894 1.7051,-1.6894 1.673,0 2.4851,1.1208 2.4851,2.6314 l 0,4.742 1.3803,0"
           id="path50"
           style="fill:#231f20;fill-opacity:1;fill-rule:nonzero;stroke:none" />
        <path
           d="m 86.7498,549.0618 1.2992,0 0,-1.7704 0.0325,0 c 0.6661,1.3481 1.5916,2.0139 3.0858,1.9652 l 0,-1.4616 c -2.2252,0 -3.0369,-1.2671 -3.0369,-3.3945 l 0,-3.7355 -1.3806,0"
           id="path52"
           style="fill:#231f20;fill-opacity:1;fill-rule:nonzero;stroke:none" />
        <path
           d="m 97.5807,545.6672 c -0.065,1.3157 -1.0558,2.3713 -2.4198,2.3713 -1.4456,0 -2.3065,-1.0884 -2.4039,-2.3713 l 4.8237,0 z m 1.3317,-2.3383 c -0.3737,-1.8518 -1.7054,-2.8587 -3.5891,-2.8587 -2.6799,0 -3.9467,1.8515 -4.028,4.4178 0,2.5172 1.6569,4.3686 3.9467,4.3686 2.9719,0 3.8814,-2.7773 3.8004,-4.8076 l -6.2854,0 c -0.0486,-1.4616 0.7795,-2.7606 2.6149,-2.7606 1.1369,0 1.9325,0.5525 2.1763,1.6405"
           id="path54"
           style="fill:#231f20;fill-opacity:1;fill-rule:nonzero;stroke:none" />
        <path
           d="m 109.6315,549.809 c 0,0.6657 -0.5037,1.2342 -1.3321,1.2342 -0.6497,0 -1.3318,-0.3898 -1.3318,-1.2342 0,-0.6985 0.6175,-1.3804 1.1208,-2.014 0.6657,0.4222 1.5431,1.0393 1.5431,2.014 z m -1.9978,-3.5407 c -1.088,-0.6171 -2.0139,-1.2339 -2.0139,-2.6149 0,-1.169 1.088,-1.965 2.2088,-1.965 1.0558,0 1.9,0.5358 2.4686,1.3803 l -2.6635,3.1996 z m 3.427,-4.1576 c -0.6986,-1.088 -2.0142,-1.6405 -3.281,-1.6405 -3.1344,0 -3.6216,2.2251 -3.6216,3.1671 0,1.8193 1.2343,2.7285 2.7124,3.5077 -0.6496,0.9259 -1.2832,1.5432 -1.2832,2.7287 0,1.2669 0.942,2.3875 2.615,2.3875 1.4452,0 2.8095,-0.7959 2.8095,-2.3712 0,-1.3806 -1.0558,-2.3713 -2.1763,-3.0045 l 2.0952,-2.5497 c 0.211,0.5683 0.3409,1.1854 0.3734,1.8026 l 1.3154,0 c -0.1135,-1.3642 -0.2924,-1.8354 -0.7796,-2.8581 l 2.2577,-2.6153 -1.8029,0"
           id="path56"
           style="fill:#231f20;fill-opacity:1;fill-rule:nonzero;stroke:none" />
        <path
           d="m 29.5599,524.9034 3.8652,0 c 1.3318,0 2.1762,0.8121 2.1762,2.0789 0,1.5106 -1.218,1.9329 -2.5172,1.9329 l -3.5242,0 0,-4.0118 z m 0,5.3107 3.0857,0 c 1.754,0 2.4686,0.6336 2.4686,1.8511 0,1.608 -1.1369,1.8354 -2.4686,1.8354 l -3.0857,0 0,-3.6865 z m -1.543,4.9861 4.2064,0 c 1.0232,0 2.3712,0 3.0695,-0.4222 0.7634,-0.4551 1.3643,-1.2829 1.3643,-2.4198 0,-1.235 -0.6496,-2.1602 -1.7216,-2.5986 l 0,-0.0327 c 1.4292,-0.2921 2.2088,-1.3643 2.2088,-2.7932 0,-1.7054 -1.218,-3.3299 -3.5242,-3.3299 l -5.6032,0"
           id="path58"
           style="fill:#231f20;fill-opacity:1;fill-rule:nonzero;stroke:none" />
        <path
           d="m 43.6943,527.9404 c -0.5359,-0.3895 -1.5753,-0.4062 -2.5011,-0.5683 -0.9095,-0.1624 -1.6891,-0.4873 -1.6891,-1.5106 0,-0.9092 0.7796,-1.2343 1.6242,-1.2343 1.8189,0 2.566,1.1368 2.566,1.9 l 0,1.4132 z m 2.2412,-4.3037 c -0.2436,-0.146 -0.5522,-0.2278 -0.9907,-0.2278 -0.7147,0 -1.1693,0.3899 -1.1693,1.2997 -0.7634,-0.8931 -1.7864,-1.2997 -2.9558,-1.2997 -1.5267,0 -2.7771,0.6828 -2.7771,2.3551 0,1.9001 1.4128,2.3063 2.842,2.5826 1.5266,0.2923 2.8259,0.1948 2.8259,1.2342 0,1.2015 -0.9906,1.3964 -1.8677,1.3964 -1.1694,0 -2.0301,-0.357 -2.095,-1.5913 l -1.3805,0 c 0.0812,2.0789 1.6891,2.8096 3.5567,2.8096 1.5104,0 3.1508,-0.3409 3.1508,-2.3066 l 0,-4.3197 c 0,-0.6496 0,-0.942 0.4384,-0.942 0.1138,0 0.2437,0.016 0.4223,0.0814"
           id="path60"
           style="fill:#231f20;fill-opacity:1;fill-rule:nonzero;stroke:none" />
        <path
           d="m 46.8708,532.0006 1.2993,0 0,-1.7704 0.0325,0 c 0.6658,1.3481 1.5915,2.0138 3.0857,1.9653 l 0,-1.4617 c -2.2249,0 -3.037,-1.2671 -3.037,-3.3945 l 0,-3.7355 -1.3805,0"
           id="path62"
           style="fill:#231f20;fill-opacity:1;fill-rule:nonzero;stroke:none" />
        <path
           d="m 52.0288,532.0006 1.2994,0 0,-1.7704 0.0325,0 c 0.6657,1.3481 1.5913,2.0138 3.0854,1.9653 l 0,-1.4617 c -2.2248,0 -3.0369,-1.2671 -3.0369,-3.3945 l 0,-3.7355 -1.3804,0"
           id="path64"
           style="fill:#231f20;fill-opacity:1;fill-rule:nonzero;stroke:none" />
        <path
           d="m 57.2467,532.0006 1.3806,0 0,-8.3968 -1.3806,0 0,8.3968 z m 1.3806,1.5106 -1.3806,0 0,1.689 1.3806,0"
           id="path66"
           style="fill:#231f20;fill-opacity:1;fill-rule:nonzero;stroke:none" />
        <path
           d="m 60.3161,532.0006 1.2992,0 0,-1.3318 0.0325,0 c 0.5847,1.0395 1.5267,1.5267 2.7285,1.5267 2.2088,0 2.8909,-1.2672 2.8909,-3.0697 l 0,-5.522 -1.3806,0 0,5.6847 c 0,1.023 -0.6497,1.6887 -1.7052,1.6887 -1.6726,0 -2.485,-1.1201 -2.485,-2.6306 l 0,-4.7428 -1.3803,0"
           id="path68"
           style="fill:#231f20;fill-opacity:1;fill-rule:nonzero;stroke:none" />
        <path
           d="m 74.8161,527.9731 c 0,1.4778 -0.6496,3.0041 -2.3876,3.0041 -1.7701,0 -2.4847,-1.4449 -2.4847,-3.0529 0,-1.5103 0.5522,-3.1997 2.3712,-3.1997 1.819,0 2.5011,1.6727 2.5011,3.2485 z m 1.3639,-3.6546 c 0,-2.7282 -1.2504,-4.1249 -3.8975,-4.1249 -1.5755,0 -3.3945,0.6329 -3.4755,2.4683 l 1.3803,0 c 0.065,-1.0066 1.2668,-1.3643 2.1763,-1.3643 1.8029,0 2.5172,1.2996 2.5172,3.1836 l 0,0.5519 -0.0325,0 c -0.4544,-1.0231 -1.5592,-1.5267 -2.6147,-1.5267 -2.5011,0 -3.7515,1.9656 -3.7515,4.2551 0,1.9814 0.9745,4.434 3.8815,4.434 1.0558,0 1.9978,-0.4712 2.5011,-1.3964 l 0.0161,0 0,1.2015 1.2992,0"
           id="path70"
           style="fill:#231f20;fill-opacity:1;fill-rule:nonzero;stroke:none" />
        <path
           d="m 89.3841,531.8057 c -0.1788,1.6566 -1.2832,2.3712 -2.8748,2.3712 -1.2993,0 -2.5986,-0.4712 -2.5986,-1.9814 0,-1.4292 1.8515,-1.6405 3.7194,-2.0628 1.8511,-0.4223 3.7029,-1.0715 3.7029,-3.3453 0,-2.4689 -2.4201,-3.4598 -4.5314,-3.4598 -2.5985,0 -4.7909,1.2671 -4.7909,4.0931 l 1.4617,0 c 0,-1.9487 1.6241,-2.7935 3.3781,-2.7935 1.3967,0 2.9394,0.4384 2.9394,2.1116 0,1.5913 -1.8514,1.8673 -3.7029,2.2738 -1.8515,0.4055 -3.719,0.9419 -3.719,3.0694 0,2.3551 2.0949,3.3945 4.2062,3.3945 2.3712,0 4.1741,-1.1208 4.2716,-3.6708"
           id="path72"
           style="fill:#231f20;fill-opacity:1;fill-rule:nonzero;stroke:none" />
        <path
           d="m 98.4561,528.6061 c -0.065,1.3157 -1.0555,2.3711 -2.4198,2.3711 -1.4456,0 -2.3062,-1.0883 -2.4036,-2.3711 l 4.8234,0 z m 1.3317,-2.3384 c -0.3734,-1.8518 -1.7051,-2.8588 -3.5891,-2.8588 -2.6796,0 -3.9467,1.8515 -4.0277,4.4179 0,2.5172 1.6565,4.3687 3.9467,4.3687 2.9719,0 3.8814,-2.7774 3.8,-4.8077 l -6.285,0 c -0.0489,-1.4617 0.7795,-2.7606 2.6149,-2.7606 1.1365,0 1.9325,0.5525 2.176,1.6405"
           id="path74"
           style="fill:#231f20;fill-opacity:1;fill-rule:nonzero;stroke:none" />
        <path
           d="m 101.0303,532.0006 1.2993,0 0,-1.7704 0.0325,0 c 0.6657,1.3481 1.5913,2.0138 3.0858,1.9653 l 0,-1.4617 c -2.2252,0 -3.0373,-1.2671 -3.0373,-3.3945 l 0,-3.7355 -1.3803,0"
           id="path76"
           style="fill:#231f20;fill-opacity:1;fill-rule:nonzero;stroke:none" />
        <path
           d="m 110.4251,523.6038 -1.4777,0 -3.1183,8.3968 1.5431,0 2.3547,-6.9997 0.0325,0 2.2902,6.9997 1.4452,0"
           id="path78"
           style="fill:#231f20;fill-opacity:1;fill-rule:nonzero;stroke:none" />
        <path
           d="m 114.4093,532.0006 1.3806,0 0,-8.3968 -1.3806,0 0,8.3968 z m 1.3806,1.5106 -1.3806,0 0,1.689 1.3806,0"
           id="path80"
           style="fill:#231f20;fill-opacity:1;fill-rule:nonzero;stroke:none" />
        <path
           d="m 123.244,529.3046 c -0.211,1.0555 -0.942,1.6726 -2.0788,1.6726 -1.9978,0 -2.6147,-1.5752 -2.6147,-3.2803 0,-1.5431 0.6982,-3.0697 2.4523,-3.0697 1.3317,0 2.1277,0.7792 2.3062,2.0463 l 1.4131,0 c -0.3087,-2.0463 -1.5916,-3.2646 -3.7029,-3.2646 -2.5661,0 -3.9303,1.7869 -3.9303,4.288 0,2.5172 1.2992,4.4986 3.9627,4.4986 1.9001,0 3.4267,-0.8934 3.6216,-2.8909"
           id="path82"
           style="fill:#231f20;fill-opacity:1;fill-rule:nonzero;stroke:none" />
        <path
           d="m 131.7674,528.6061 c -0.065,1.3157 -1.0558,2.3711 -2.4201,2.3711 -1.4453,0 -2.3059,-1.0883 -2.4036,-2.3711 l 4.8237,0 z m 1.3314,-2.3384 c -0.3734,-1.8518 -1.7051,-2.8588 -3.5891,-2.8588 -2.6796,0 -3.9464,1.8515 -4.0274,4.4179 0,2.5172 1.6562,4.3687 3.9464,4.3687 2.9719,0 3.8814,-2.7774 3.8,-4.8077 l -6.285,0 c -0.0486,-1.4617 0.7795,-2.7606 2.6149,-2.7606 1.1369,0 1.9325,0.5525 2.1763,1.6405"
           id="path84"
           style="fill:#231f20;fill-opacity:1;fill-rule:nonzero;stroke:none" />
      </g>
      <g
         id="g3786">
        <path
           d="m 34.8263,579.2606 0,-0.8041 c 0.4087,-0.0261 0.7062,-0.0963 0.8699,-0.1433 -0.0844,0.4578 -0.4263,0.8252 -0.8699,0.9474"
           id="path86"
           style="fill:#231f20;fill-opacity:1;fill-rule:nonzero;stroke:none" />
        <path
           d="m 34.3237,579.8279 c 0,0 0,0 0,-3e-4 0,-0.2708 -0.056,-0.4503 -0.1397,-0.5667 0.0093,0.003 0.1457,0.0429 0.3206,0.0429 0.1144,0 0.3062,-0.0401 0.3204,-0.0429 -0.0835,0.1164 -0.14,0.2959 -0.14,0.5667 0,3e-4 0,3e-4 0,3e-4 0.6091,0 0.7582,-0.2854 0.7582,-0.5203 l 0.117,0 0,0.7012 0,0.702 -0.117,0 c 0,-0.2355 -0.1491,-0.5215 -0.7582,-0.5215 0,0.6094 0.2859,0.7586 0.5213,0.7586 l 0,0.1163 -0.702,0 -0.7021,0 0,-0.1163 c 0.2356,0 0.5215,-0.1492 0.5215,-0.7586 -0.6094,0 -0.7584,0.2863 -0.7584,0.5215 l -0.116,0 0,-0.702 0,-0.702 0.116,0 c 0,0.2357 0.149,0.5211 0.7584,0.5211"
           id="path88"
           style="fill:#231f20;fill-opacity:1;fill-rule:nonzero;stroke:none" />
        <path
           d="m 34.1827,579.2606 c -0.4421,-0.1217 -0.7832,-0.4875 -0.8691,-0.9438 0.1645,0.0493 0.4582,0.1183 0.8691,0.1424"
           id="path90"
           style="fill:#231f20;fill-opacity:1;fill-rule:nonzero;stroke:none" />
        <path
           d="m 35.1928,559.1151 c 0,0.1423 0.116,0.2586 0.2588,0.2586 0.1427,0 0.2584,-0.1163 0.2584,-0.2586 0,-0.1426 -0.1157,-0.2585 -0.2584,-0.2585 -0.1428,0 -0.2588,0.1159 -0.2588,0.2585 z m -0.2521,0 c 0,-0.282 0.2291,-0.5113 0.5109,-0.5113 0.2819,0 0.5118,0.2293 0.5118,0.5113 0,0.282 -0.2299,0.5114 -0.5118,0.5114 -0.2818,0 -0.5109,-0.2294 -0.5109,-0.5114"
           id="path92"
           style="fill:#231f20;fill-opacity:1;fill-rule:nonzero;stroke:none" />
        <path
           d="m 33.5389,565.6752 -0.0609,-0.4333 -0.3396,0.6871 c 0.036,0.0178 0.0765,0.0269 0.1193,0.0269 0.1549,0 0.3015,-0.1386 0.2812,-0.2807 z m -0.1408,-1.0055 -0.5289,1.0702 c 0.0572,0.034 0.1117,0.0716 0.1633,0.113 l 0.4139,-0.8378 -0.0483,-0.3454 z m -0.08,-0.5719 -0.745,1.5077 c 0.0632,0.0204 0.1242,0.0451 0.1829,0.0732 l 0.6105,-1.2361 -0.0484,-0.3448 z m -0.0794,-0.5728 -0.9959,2.0158 c 0.0699,0.005 0.1375,0.0157 0.204,0.0306 l 0.8399,-1.7007 -0.048,-0.3457 z m -0.0805,-0.5722 -1.2869,2.6069 c 0.0745,-0.0134 0.1512,-0.0214 0.2299,-0.0226 l 1.1054,-2.239 -0.0484,-0.3453 z m -1.4812,2.6576 c 0.0099,-0.004 0.0198,-0.007 0.0304,-0.0102 l 1.4119,-2.8588 c -1.747,0.7839 -1.5697,2.2082 -1.4423,2.869 z m 2.3268,0.238 c 0,0.2523 -0.2044,0.4562 -0.456,0.4562 l -0.0834,5e-4 -2.4882,0 c -0.2164,0 -0.392,-0.1776 -0.392,-0.3946 l 5e-4,4e-4 c 0,-0.1559 0.1269,-0.2843 0.2835,-0.2843 0.1561,0 0.283,0.1234 0.2836,0.2933 0.0588,-0.0542 0.1221,-0.1037 0.1891,-0.1477 -0.0302,-0.1521 -0.0739,-0.3761 -0.0909,-0.6409 -0.0343,0.0535 -0.0942,0.0892 -0.1626,0.0892 -0.1069,0 -0.1935,-0.0865 -0.1935,-0.1929 0,-0.1069 0.0866,-0.1933 0.1935,-0.1933 0.0639,0 0.1208,0.0312 0.1559,0.0796 0,-0.136 0.0082,-0.2796 0.0293,-0.4268 -0.032,0.0235 -0.0714,0.0377 -0.1147,0.0377 -0.1064,0 -0.193,-0.0866 -0.193,-0.1931 0,-0.1068 0.0866,-0.1935 0.193,-0.1935 0.0695,0 0.1306,0.0372 0.1645,0.0923 0.0044,-0.0168 0.0082,-0.0334 0.0125,-0.0501 0.0314,-0.1166 0.07,-0.229 0.1165,-0.3368 -0.0279,0.0155 -0.0596,0.0242 -0.0936,0.0242 -0.1067,0 -0.1933,-0.0865 -0.1933,-0.1931 0,-0.107 0.0866,-0.1934 0.1933,-0.1934 0.0958,0 0.1758,0.0702 0.1904,0.1619 0.0684,-0.1258 0.148,-0.2454 0.2388,-0.3582 -0.0115,0.002 -0.0235,0.003 -0.0363,0.003 -0.1066,0 -0.1933,-0.0866 -0.1933,-0.1935 0,-0.1065 0.0867,-0.1929 0.1933,-0.1929 0.107,0 0.1932,0.0864 0.1932,0.1929 0,0.004 -3e-4,0.009 -3e-4,0.013 0.2896,-0.2986 0.6678,-0.5466 1.1329,-0.741 l -0.0817,-0.5852 c 0,0 0.1835,-0.0874 0.4664,-0.1677 0.2741,-0.0776 0.5442,-0.1213 0.5442,-0.1213"
           id="path94"
           style="fill:#231f20;fill-opacity:1;fill-rule:nonzero;stroke:none" />
        <path
           d="m 32.2984,577.3248 c 0,0.1681 0.1368,0.3051 0.3052,0.3051 0.168,0 0.3047,-0.137 0.3047,-0.3051 0,-0.1685 -0.1367,-0.3051 -0.3047,-0.3051 -0.1684,0 -0.3052,0.1366 -0.3052,0.3051"
           id="path96"
           style="fill:#231f20;fill-opacity:1;fill-rule:nonzero;stroke:none" />
        <path
           d="m 28.3537,575.2278 c 0,0.168 0.1365,0.3045 0.3047,0.3045 0.1684,0 0.3047,-0.1365 0.3047,-0.3045 0,-0.1688 -0.1363,-0.3049 -0.3047,-0.3049 -0.1682,0 -0.3047,0.1361 -0.3047,0.3049"
           id="path98"
           style="fill:#231f20;fill-opacity:1;fill-rule:nonzero;stroke:none" />
        <path
           d="m 28.1911,575.9963 c 0,0.1687 0.1371,0.305 0.3052,0.305 0.168,0 0.3047,-0.1363 0.3047,-0.305 0,-0.1679 -0.1367,-0.3044 -0.3047,-0.3044 -0.1681,0 -0.3052,0.1365 -0.3052,0.3044"
           id="path100"
           style="fill:#231f20;fill-opacity:1;fill-rule:nonzero;stroke:none" />
        <path
           d="m 28.266,576.7773 c 0,0.1682 0.1374,0.3052 0.3055,0.3052 0.1684,0 0.3048,-0.137 0.3048,-0.3052 0,-0.1684 -0.1364,-0.3049 -0.3048,-0.3049 -0.1681,0 -0.3055,0.1365 -0.3055,0.3049"
           id="path102"
           style="fill:#231f20;fill-opacity:1;fill-rule:nonzero;stroke:none" />
        <path
           d="m 28.6789,577.4432 c 0,0.1683 0.1365,0.3049 0.3047,0.3049 0.1685,0 0.3049,-0.1366 0.3049,-0.3049 0,-0.1684 -0.1364,-0.3051 -0.3049,-0.3051 -0.1682,0 -0.3047,0.1367 -0.3047,0.3051"
           id="path104"
           style="fill:#231f20;fill-opacity:1;fill-rule:nonzero;stroke:none" />
        <path
           d="m 29.3144,577.8998 c 0,0.1684 0.1367,0.3044 0.3051,0.3044 0.1682,0 0.305,-0.136 0.305,-0.3044 0,-0.1687 -0.1368,-0.3048 -0.305,-0.3048 -0.1684,0 -0.3051,0.1361 -0.3051,0.3048"
           id="path106"
           style="fill:#231f20;fill-opacity:1;fill-rule:nonzero;stroke:none" />
        <path
           d="m 30.0836,578.0366 c 0,0.1682 0.1363,0.3048 0.3047,0.3048 0.1685,0 0.3052,-0.1366 0.3052,-0.3048 0,-0.1683 -0.1367,-0.3045 -0.3052,-0.3045 -0.1684,0 -0.3047,0.1362 -0.3047,0.3045"
           id="path108"
           style="fill:#231f20;fill-opacity:1;fill-rule:nonzero;stroke:none" />
        <path
           d="m 30.8449,577.8781 c 0,0.1683 0.1366,0.3046 0.3047,0.3046 0.1684,0 0.3049,-0.1363 0.3049,-0.3046 0,-0.1684 -0.1365,-0.3048 -0.3049,-0.3048 -0.1681,0 -0.3047,0.1364 -0.3047,0.3048"
           id="path110"
           style="fill:#231f20;fill-opacity:1;fill-rule:nonzero;stroke:none" />
        <path
           d="m 31.5783,577.595 c 0,0.1683 0.1365,0.3048 0.3047,0.3048 0.1684,0 0.305,-0.1365 0.305,-0.3048 0,-0.1686 -0.1366,-0.3048 -0.305,-0.3048 -0.1682,0 -0.3047,0.1362 -0.3047,0.3048"
           id="path112"
           style="fill:#231f20;fill-opacity:1;fill-rule:nonzero;stroke:none" />
        <path
           d="m 36.7109,577.3248 c 0,0.1681 -0.136,0.3051 -0.3052,0.3051 -0.168,0 -0.3039,-0.137 -0.3039,-0.3051 0,-0.1685 0.1359,-0.3051 0.3039,-0.3051 0.1692,0 0.3052,0.1366 0.3052,0.3051"
           id="path114"
           style="fill:#231f20;fill-opacity:1;fill-rule:nonzero;stroke:none" />
        <path
           d="m 40.6562,575.2278 c 0,0.168 -0.1367,0.3045 -0.3048,0.3045 -0.169,0 -0.305,-0.1365 -0.305,-0.3045 0,-0.1688 0.136,-0.3049 0.305,-0.3049 0.1681,0 0.3048,0.1361 0.3048,0.3049"
           id="path116"
           style="fill:#231f20;fill-opacity:1;fill-rule:nonzero;stroke:none" />
        <path
           d="m 40.8183,575.9963 c 0,0.1687 -0.137,0.305 -0.3051,0.305 -0.168,0 -0.3047,-0.1363 -0.3047,-0.305 0,-0.1679 0.1367,-0.3044 0.3047,-0.3044 0.1681,0 0.3051,0.1365 0.3051,0.3044"
           id="path118"
           style="fill:#231f20;fill-opacity:1;fill-rule:nonzero;stroke:none" />
        <path
           d="m 40.7428,576.7773 c 0,0.1682 -0.136,0.3052 -0.3047,0.3052 -0.1684,0 -0.3045,-0.137 -0.3045,-0.3052 0,-0.1684 0.1361,-0.3049 0.3045,-0.3049 0.1687,0 0.3047,0.1365 0.3047,0.3049"
           id="path120"
           style="fill:#231f20;fill-opacity:1;fill-rule:nonzero;stroke:none" />
        <path
           d="m 40.3311,577.4432 c 0,0.1683 -0.1366,0.3049 -0.3049,0.3049 -0.1681,0 -0.3052,-0.1366 -0.3052,-0.3049 0,-0.1684 0.1371,-0.3051 0.3052,-0.3051 0.1683,0 0.3049,0.1367 0.3049,0.3051"
           id="path122"
           style="fill:#231f20;fill-opacity:1;fill-rule:nonzero;stroke:none" />
        <path
           d="m 39.6948,577.8998 c 0,0.1684 -0.1365,0.3044 -0.3046,0.3044 -0.1687,0 -0.305,-0.136 -0.305,-0.3044 0,-0.1687 0.1363,-0.3048 0.305,-0.3048 0.1681,0 0.3046,0.1361 0.3046,0.3048"
           id="path124"
           style="fill:#231f20;fill-opacity:1;fill-rule:nonzero;stroke:none" />
        <path
           d="m 38.9259,578.0366 c 0,0.1682 -0.1361,0.3048 -0.3045,0.3048 -0.1686,0 -0.3052,-0.1366 -0.3052,-0.3048 0,-0.1683 0.1366,-0.3045 0.3052,-0.3045 0.1684,0 0.3045,0.1362 0.3045,0.3045"
           id="path126"
           style="fill:#231f20;fill-opacity:1;fill-rule:nonzero;stroke:none" />
        <path
           d="m 38.165,577.8781 c 0,0.1683 -0.1364,0.3046 -0.3048,0.3046 -0.1687,0 -0.3052,-0.1363 -0.3052,-0.3046 0,-0.1684 0.1365,-0.3048 0.3052,-0.3048 0.1684,0 0.3048,0.1364 0.3048,0.3048"
           id="path128"
           style="fill:#231f20;fill-opacity:1;fill-rule:nonzero;stroke:none" />
        <path
           d="m 37.4311,577.595 c 0,0.1683 -0.1361,0.3048 -0.3047,0.3048 -0.1679,0 -0.3052,-0.1365 -0.3052,-0.3048 0,-0.1686 0.1373,-0.3048 0.3052,-0.3048 0.1686,0 0.3047,0.1362 0.3047,0.3048"
           id="path130"
           style="fill:#231f20;fill-opacity:1;fill-rule:nonzero;stroke:none" />
        <path
           d="m 37.1162,572.9484 c 0,0.1853 -0.1501,0.3354 -0.3354,0.3354 -0.1852,0 -0.3356,-0.1501 -0.3356,-0.3354 0,-0.1849 0.1504,-0.3347 0.3356,-0.3347 0.1853,0 0.3354,0.1498 0.3354,0.3347"
           id="path132"
           style="fill:#231f20;fill-opacity:1;fill-rule:nonzero;stroke:none" />
        <path
           d="m 38.2276,567.1732 -3.1985,0 0,3.6409 1.2542,0 0.4718,0 1.4725,0 0,-3.6409 z m -3.3017,3.7441 0,-3.8461 3.4028,0 0.0013,3.8467"
           id="path134"
           style="fill:#231f20;fill-opacity:1;fill-rule:nonzero;stroke:none" />
        <path
           d="m 37.8998,570.5833 0,-0.1003 0.1006,0 0,-2.9789 -0.1006,0 0,-0.1001 -2.5433,0 0,0.1001 -0.1002,0 0,2.9789 0.1002,0 0,0.1003 2.5433,0 z m -2.5433,0.1005 0,0 -0.2002,0 0,-3.1797 0,-0.2004 0.2002,0 2.5433,0 0.2011,0 0,0.2004 0,2.9789 0,0.2008 -0.2011,0 -1.0958,0 -0.5663,0"
           id="path136"
           style="fill:#231f20;fill-opacity:1;fill-rule:nonzero;stroke:none" />
        <path
           d="m 37.7495,569.7087 -0.1582,-0.1492 c 0,0 -5e-4,4e-4 -10e-4,4e-4 0,0 -0.0101,-0.009 -0.0245,-0.0235 l -6e-4,4e-4 -0.298,-0.2786 c -0.0949,-0.0856 -0.1138,-0.2229 -0.0434,-0.3193 -5e-4,3e-4 0.1722,-0.239 0.1722,-0.239 0.0166,-0.0224 0.0233,-0.0494 0.0187,-0.0764 -0.0041,-0.0266 -0.0187,-0.0502 -0.0405,-0.0665 -0.0217,-0.016 -0.0489,-0.0228 -0.076,-0.0186 -0.027,0.004 -0.0499,0.0182 -0.0666,0.0405 0,0 -0.1692,0.2309 -0.2551,0.3483 l 0,0.331 0.4163,0.3917 0,0.3534 -0.1465,0.1472 0.1803,0.179 -0.7352,0 -0.1769,-0.175 0,-0.1962 c 0.0232,0.0139 0.0508,0.0221 0.0792,0.0221 0.0866,0 0.157,-0.0703 0.157,-0.1567 0,-0.0862 -0.0704,-0.1565 -0.157,-0.1565 -0.0284,0 -0.056,0.009 -0.0792,0.0223 l 0,-0.2397 -0.249,0 -0.3037,0.4122 c 0.0423,0.0369 0.0687,0.09 0.0687,0.1511 0,0.1107 -0.0898,0.2002 -0.2004,0.2002 -0.0435,0 -0.0829,-0.0136 -0.1153,-0.0362 l 0,-0.1159 0,-0.2023 0,-0.0103 c 0.0043,-0.003 0.0093,-0.006 0.0147,-0.009 l 0.2868,-0.3896 0.1479,-0.2009 0.2496,0 0.0857,0 -0.1851,-0.1847 -0.3382,0 c -0.0293,0.0743 -0.1022,0.1273 -0.1866,0.1273 -0.0849,0 -0.1573,-0.053 -0.1865,-0.1273 -0.0091,-0.0229 -0.0143,-0.0476 -0.0143,-0.0735 0,-0.0484 0.0172,-0.093 0.0457,-0.1274 l 0.3103,0 0.5004,0 0.14,-0.1895 -0.3217,0 -0.2281,0 0,-0.007 0.2092,-0.2887 0.1132,-0.1565 -0.2798,0 c -0.0257,0.0815 -0.1018,0.1401 -0.1913,0.1401 -0.0889,0 -0.1654,-0.0586 -0.1913,-0.1401 -0.0056,-0.0191 -0.0091,-0.0394 -0.0091,-0.0603 0,-0.0548 0.0216,-0.1043 0.0565,-0.1405 l 0.2877,0 0.4727,0 0.2335,0 -0.1459,0.2008 -0.1133,0.1565 0.3249,0 0.1146,-0.1565 0.1477,-0.2008 0.4168,0 0.0513,0 0,-0.2239 -0.0641,0 c -0.0256,0.0809 -0.1016,0.1396 -0.1913,0.1396 -0.0895,0 -0.1655,-0.0587 -0.1916,-0.1396 -0.0053,-0.0194 -0.009,-0.0396 -0.009,-0.0607 0,-0.055 0.022,-0.1042 0.0569,-0.1404 l 0.6,-4e-4 0,0.4254 0,0.2008 -0.2009,0 -0.199,0 -0.1958,0.2666 c 0.0359,-0.0418 0.0853,-0.0699 0.1405,-0.0784 0.0609,-0.009 0.1228,0.005 0.1722,0.0423 0.0505,0.0367 0.0832,0.0907 0.093,0.1517 0.009,0.0614 -0.0063,0.1227 -0.0425,0.1724 3e-4,-2e-4 -0.1728,0.2387 -0.1728,0.2387 -0.0349,0.0485 -0.0122,0.1123 0.027,0.1472 7e-4,5e-4 0.0374,0.0349 0.0846,0.0793 0.0709,-0.066 0.1809,-0.0665 0.2524,2e-4 0.0374,0.0356 0.0567,0.0818 0.0581,0.1291 l 0,2e-4 7e-4,-2e-4"
           id="path138"
           style="fill:#231f20;fill-opacity:1;fill-rule:nonzero;stroke:none" />
        <path
           d="m 34.0432,572.9496 0.4617,0.4622 0.4624,-0.4622 -0.4624,-0.4619"
           id="path140"
           style="fill:#231f20;fill-opacity:1;fill-rule:nonzero;stroke:none" />
        <path
           d="m 31.8937,572.9484 c 0,0.1853 0.1502,0.3354 0.335,0.3354 0.1857,0 0.3353,-0.1501 0.3353,-0.3354 0,-0.1849 -0.1496,-0.3347 -0.3353,-0.3347 -0.1848,0 -0.335,0.1498 -0.335,0.3347"
           id="path142"
           style="fill:#231f20;fill-opacity:1;fill-rule:nonzero;stroke:none" />
        <path
           d="m 35.8947,564.28 -0.203,0.2028 0.4056,0 -0.2026,-0.2028 z m 2.1958,0.0271 0,-7e-4 -0.0161,0 c 0.0151,0.0316 0.0239,0.067 0.0239,0.1042 0,0.13 -0.1057,0.2356 -0.2357,0.2356 l -0.8491,0 c -0.0028,0.1081 -0.0908,0.1945 -0.1994,0.1945 -0.0551,0 -0.1051,-0.0221 -0.1414,-0.0587 l -0.267,-0.2667 0.2524,0 c 9e-4,-5e-4 9e-4,-10e-4 0.0014,-10e-4 l 0.3095,0 0.8936,0 c 0.0577,0 0.1039,-0.0461 0.1039,-0.1036 0,-0.0574 -0.0462,-0.1035 -0.1039,-0.1035 l 0,-7e-4 -0.572,0 0,7e-4 -1.1103,0 0,0.2387 0.2955,0.2949 -1.1625,0 0.294,-0.2938 0,-0.4356 -0.4729,0.3771 c 0.0395,0.0372 0.0644,0.09 0.0644,0.1489 0,0.1126 -0.0912,0.2039 -0.2041,0.2039 -0.0489,0 -0.0942,-0.0172 -0.1293,-0.0463 0,0 0,-0.2408 0,-0.3017 l 0,-3e-4 0,-0.0514 0.7199,-0.5744 -0.3391,-0.1057 c -0.0273,0.0817 -0.1033,0.1403 -0.1939,0.1403 -0.1129,0 -0.2042,-0.0915 -0.2042,-0.2044 0,-0.0487 0.0173,-0.0935 0.046,-0.1288 0,0 0.1393,0 0.2325,0 l 0.1853,0 1.8322,0.5688 0,-0.2825 -0.2371,-0.1093 c -0.0218,0.0895 -0.1017,0.1562 -0.198,0.1562 -0.1126,0 -0.2043,-0.0915 -0.2043,-0.2044 0,-0.0487 0.0174,-0.0935 0.0459,-0.1288 0,0 0.1341,0 0.2275,0 l 0.2321,0 0.2866,0.132 0.1853,0.0853 -0.0852,0.1856 -0.0391,0.0849 0.6729,0 c -0.0074,-0.0264 -0.0157,-0.0535 -0.0243,-0.0802 -0.0159,-0.0487 -0.0332,-0.0965 -0.0496,-0.14 -0.0371,0.0402 -0.0905,0.0656 -0.1494,0.0656 -0.113,0 -0.204,-0.0915 -0.204,-0.2044 0,-0.0487 0.0168,-0.0935 0.0458,-0.1288 0,0 0.3139,0 0.316,0 0.0102,0 0.1022,0 0.1022,0 0.0535,0.1181 0.1003,0.2547 0.1278,0.3427 0.0532,0.169 0.0896,0.3387 0.0997,0.3959 0,-7e-4 -0.2044,0 -0.2044,0"
           id="path144"
           style="fill:#231f20;fill-opacity:1;fill-rule:nonzero;stroke:none" />
        <path
           d="m 35.8947,565.7491 -0.203,0.2033 0.4056,0 -0.2026,-0.2033 z m 2.2297,0.0267 c 0.0154,0.0314 0.0245,0.0665 0.0245,0.1038 0,0.1305 -0.1059,0.236 -0.2358,0.236 l -0.8996,0 c -0.0028,0.1082 -0.0908,0.1946 -0.1994,0.1946 -0.0551,0 -0.1051,-0.0227 -0.1414,-0.0587 l -0.267,-0.2674 0.2524,0 c 9e-4,0 9e-4,-3e-4 0.0014,-3e-4 0,0 0.2552,0 0.3018,0 l 0.9518,0 c 0.0574,0 0.104,-0.0468 0.104,-0.1042 0,-0.0568 -0.0466,-0.1038 -0.104,-0.1038 l -0.6225,0 -1.1103,0 0,0.2393 0.2955,0.2951 -1.1625,0 0.294,-0.2939 0,-0.4356 -0.4734,0.3769 c 0.04,0.0374 0.0649,0.0904 0.0649,0.1487 0,0.1128 -0.0912,0.2043 -0.2041,0.2043 -0.0489,0 -0.0942,-0.0178 -0.1293,-0.0463 0,0 0,-0.2406 0,-0.3017 l 0,-3e-4 0,-0.0518 0.7199,-0.574 -0.3391,-0.1055 c -0.0273,0.0812 -0.104,0.1395 -0.1939,0.1395 -0.1129,0 -0.2042,-0.0911 -0.2042,-0.2038 0,-0.0488 0.0173,-0.094 0.046,-0.1294 3e-4,0 0.3159,0 0.3159,6e-4 l 0.1019,0 1.8322,0.5687 0,-0.2993 -0.2456,-0.0763 c -0.027,0.0812 -0.1038,0.1395 -0.1937,0.1395 -0.1126,0 -0.2045,-0.0911 -0.2045,-0.2038 0,-0.0488 0.0176,-0.094 0.0466,-0.1294 0,0 0.3158,0 0.3158,6e-4 l 0.1015,0 0.4582,0.1421 0.2237,0.0696 -0.1704,0.1601 -0.1232,0.1161 0.8084,0 0,-0.2267 c -0.0377,0.0437 -0.0935,0.0714 -0.156,0.0714 -0.1129,0 -0.2039,-0.0911 -0.2039,-0.2038 0,-0.0488 0.0174,-0.094 0.0466,-0.1294 0,0 0.3157,0 0.3157,6e-4 l 0.2013,0 0,0.4879 0,0.1044 0,0.1456"
           id="path146"
           style="fill:#231f20;fill-opacity:1;fill-rule:nonzero;stroke:none" />
        <path
           d="m 35.8947,562.8122 -0.203,0.2026 0.4056,0 -0.2026,-0.2026 z m -0.1362,-0.3658 -6e-4,0 6e-4,0 z m 1.6067,0.7327 -0.3517,0 c -0.0028,0.1075 -0.0908,0.1939 -0.1994,0.1939 -0.0551,0 -0.1051,-0.0224 -0.1414,-0.0587 l -0.267,-0.2666 0.2524,0 c 9e-4,-5e-4 9e-4,-8e-4 0.0014,-10e-4 0,0 0.3095,0 0.3095,6e-4 l 0.3962,0 c 0.0572,0 0.104,-0.0467 0.104,-0.1038 0,-0.0577 -0.0468,-0.1039 -0.104,-0.1039 l -0.5827,0 0,-10e-5 -0.6022,0 0,0.2388 0.2955,0.2951 -1.1625,0 0.294,-0.2937 0,-0.4967 -0.4795,0.4322 c 0.0432,0.0375 0.071,0.0928 0.071,0.1545 0,0.1131 -0.0912,0.2045 -0.2041,0.2045 -0.0489,0 -0.0942,-0.0177 -0.1293,-0.0462 0,0 0,-0.1306 0,-0.2241 l 0,-0.1266 0.759,-0.6849 0.0346,0.0387 -0.4851,-0.5667 c -0.04,0.0317 -0.0926,0.0485 -0.1472,0.0426 -0.1118,-0.0116 -0.1934,-0.1115 -0.1815,-0.224 0.0045,-0.0429 0.0216,-0.0814 0.0479,-0.1113 0.0702,0.006 0.178,0.0158 0.3326,0.0412 l 0.5394,0.6289 c 0.0718,0.0244 0.1454,0.0527 0.2201,0.0849 l 0.2119,-0.1914 c -0.0424,-0.021 -0.0852,-0.0401 -0.1281,-0.0587 -0.0558,0.0466 -0.1343,0.0624 -0.206,0.034 -0.1054,-0.0411 -0.1569,-0.1594 -0.116,-0.2644 0.0138,-0.036 0.0431,-0.0631 0.0658,-0.0872 0,-5e-4 0.0852,0.0278 0.1683,0.0592 0.0789,0.0303 0.156,0.0636 0.156,0.0636 0.003,10e-4 0.0048,0.002 0.0062,0.003 0.0906,0.0396 0.1817,0.0818 0.2567,0.1226 l 0,0.234 0,0.3004 c 0.1312,0.0801 0.2515,0.1679 0.3481,0.2571 l 0.2046,-0.1847 c -0.0434,-0.0348 -0.0885,-0.0686 -0.1333,-0.102 -0.0591,0.033 -0.1331,0.0347 -0.1951,-8e-4 -0.0484,-0.0276 -0.0809,-0.0718 -0.0947,-0.1212 -0.0064,-0.0244 -0.0084,-0.0506 -0.0051,-0.0756 0.003,-0.0261 0.011,-0.0517 0.0246,-0.0759 0.021,-0.0367 0.0632,-0.0689 0.101,-0.0869 0.0925,0.0576 0.1836,0.1188 0.272,0.1832 0.0663,0.0483 0.1312,0.0982 0.1941,0.1496 0.0204,0.0171 0.0409,0.034 0.0612,0.0511 l 0,0.207 0,0.0651 0.1878,0 c 0.1298,0 0.2361,0.1057 0.2361,0.2358 0,0.1302 -0.1063,0.236 -0.2361,0.236"
           id="path148"
           style="fill:#231f20;fill-opacity:1;fill-rule:nonzero;stroke:none" />
        <path
           d="m 31.6372,567.6616 -0.2028,0.2028 0.4053,0 -0.2025,-0.2028 z m 2.2304,0.0264 c 0.0154,0.0316 0.024,0.0667 0.024,0.1045 0,0.1299 -0.1054,0.2355 -0.2356,0.2355 l -0.8994,0 c -0.0029,0.1078 -0.0913,0.1945 -0.1996,0.1945 -0.0551,0 -0.105,-0.0221 -0.1415,-0.0587 l -0.2669,-0.2669 0.253,0 c 10e-5,-10e-5 10e-5,-4e-4 10e-5,-4e-4 0,0 0.297,-5e-4 0.3092,-5e-4 l 0.9451,0 c 0.0573,0 0.1038,-0.046 0.1038,-0.1035 0,-0.0575 -0.0465,-0.1045 -0.1038,-0.1045 l -0.6223,0 0,7e-4 -1.1103,0 0,0.2389 0.2946,0.2949 -1.1618,0 0.2938,-0.294 0,-0.4356 -0.4731,0.3771 c 0.0394,0.0372 0.0649,0.09 0.0649,0.1487 0,0.1128 -0.0915,0.2043 -0.2043,0.2043 -0.0492,0 -0.094,-0.0172 -0.1292,-0.0467 0,0 0,-0.24 10e-5,-0.3016 l -10e-5,-4e-4 0,-0.0511 0.7204,-0.5744 -0.3401,-0.1053 c -0.0269,0.0815 -0.1032,0.1398 -0.1936,0.1398 -0.1123,0 -0.2036,-0.0911 -0.2036,-0.2042 0,-0.049 0.017,-0.0944 0.0462,-0.1291 0,0 0.2805,0 0.313,10e-5 l 0.1038,-10e-5 1.8329,0.569 0,-0.2988 -0.2459,-0.0767 c -0.0271,0.0815 -0.1038,0.1398 -0.1937,0.1398 -0.1126,0 -0.2039,-0.0911 -0.2039,-0.2042 0,-0.049 0.0171,-0.0944 0.0458,-0.1291 0,0 0.2812,0 0.3127,10e-5 l 0.1046,-10e-5 0.4584,0.1424 0.2236,0.0695 -0.1707,0.1605 -0.1223,0.116 0.8076,0 0,-0.2272 c -0.0376,0.0439 -0.0933,0.0721 -0.1557,0.0721 -0.1122,0 -0.204,-0.0911 -0.204,-0.2042 0,-0.049 0.0178,-0.0944 0.046,-0.1291 0,0 0.3163,0 0.3163,10e-5 l 0.2013,0 0,0.4883 2e-4,0 0,0.2496"
           id="path150"
           style="fill:#231f20;fill-opacity:1;fill-rule:nonzero;stroke:none" />
        <path
           d="m 31.6372,569.0782 -0.2028,0.2029 0.4053,0 -0.2025,-0.2029 z m 2.2304,0.0262 c 0.0154,0.0317 0.024,0.0666 0.024,0.1043 0,0.1302 -0.1054,0.2358 -0.2356,0.2358 l -0.8994,0 c -0.0029,0.1079 -0.0913,0.1944 -0.1996,0.1944 -0.0551,0 -0.105,-0.0226 -0.1415,-0.0589 l -0.2669,-0.2667 0.253,0 c 10e-5,-10e-5 10e-5,-6e-4 3e-4,-10e-4 0,0 0.2409,0 0.2977,0 l 0.9564,0 c 0.0573,0 0.1038,-0.0461 0.1038,-0.1035 0,-0.0572 -0.0465,-0.1038 -0.1038,-0.1038 l 0,-5e-4 -0.6223,0 0,5e-4 -1.1103,0 0,0.2389 0.2946,0.2951 -1.1618,0 0.2938,-0.2939 0,-0.4357 -0.4731,0.3773 c 0.0394,0.0369 0.0649,0.09 0.0649,0.1485 0,0.1129 -0.0915,0.2044 -0.2043,0.2044 -0.0492,0 -0.094,-0.0176 -0.1292,-0.0463 0,0 0,-0.2407 10e-5,-0.3023 l -10e-5,0 0,-0.0513 0.7204,-0.5743 -0.3401,-0.1053 c -0.0265,0.0811 -0.103,0.1399 -0.1936,0.1399 -0.1123,0 -0.2036,-0.0913 -0.2036,-0.2041 0,-0.0492 0.017,-0.0942 0.0462,-0.1295 0,0 0.3151,0 0.3159,3e-4 l 0.1009,0 1.8329,0.5688 0,-0.2994 -0.2459,-0.076 c -0.0267,0.0811 -0.1033,0.1399 -0.1937,0.1399 -0.1126,0 -0.2039,-0.0913 -0.2039,-0.2041 0,-0.0492 0.0171,-0.0942 0.0458,-0.1295 l 0.3159,3e-4 0.1014,0 0.4584,0.1418 0.2236,0.07 -0.1707,0.1607 -0.1223,0.1157 0.8076,0 0,-0.2272 c -0.0376,0.0439 -0.0933,0.0723 -0.1557,0.0723 -0.1122,0 -0.204,-0.0913 -0.204,-0.2041 0,-0.0492 0.0178,-0.0942 0.046,-0.1295 l 0.3163,3e-4 0.2013,0 0,0.4882 2e-4,0 0,0.2496"
           id="path152"
           style="fill:#231f20;fill-opacity:1;fill-rule:nonzero;stroke:none" />
        <path
           d="m 31.6372,570.4945 -0.2028,0.2028 0.4053,0 -0.2025,-0.2028 z m 2.2304,0.0263 c 0.0154,0.0315 0.024,0.0669 0.024,0.1041 0,0.1307 -0.1054,0.2358 -0.2356,0.2358 l -0.8994,0 c -0.0029,0.1082 -0.0913,0.1945 -0.1996,0.1945 -0.0551,0 -0.105,-0.0224 -0.1415,-0.0586 l -0.2669,-0.2669 0.2527,0 c 4e-4,-2e-4 4e-4,-6e-4 4e-4,-6e-4 0,0 0.2604,-2e-4 0.3038,-2e-4 l 0.9505,0 c 0.0573,0 0.1038,-0.0463 0.1038,-0.104 0,-0.057 -0.0465,-0.1035 -0.1038,-0.1035 l 0,-6e-4 -0.6223,0 0,6e-4 -1.1103,0 0,0.2389 0.2946,0.2949 -1.1618,0 0.2938,-0.2935 0,-0.4361 -0.4731,0.3773 c 0.0394,0.037 0.0649,0.0899 0.0649,0.1487 0,0.1128 -0.0915,0.2041 -0.2043,0.2041 -0.0492,0 -0.094,-0.0172 -0.1292,-0.0459 0,0 0,-0.2409 10e-5,-0.3022 l -10e-5,0 0,-0.0516 0.7204,-0.5743 -0.3401,-0.1055 c -0.0269,0.0811 -0.1032,0.1399 -0.1936,0.1399 -0.1123,0 -0.2036,-0.0911 -0.2036,-0.2038 0,-0.0493 0.017,-0.0944 0.0462,-0.1294 0,0 0.2891,0 0.3141,3e-4 l 0.1027,0 1.8329,0.5687 0,-0.2992 -0.2459,-0.0765 c -0.0271,0.0811 -0.1038,0.1399 -0.1937,0.1399 -0.1126,0 -0.2039,-0.0911 -0.2039,-0.2038 0,-0.0493 0.0171,-0.0944 0.0458,-0.1294 0,0 0.2896,0 0.314,3e-4 l 0.1033,0 0.4584,0.1419 0.2236,0.0695 -0.1707,0.1609 -0.1223,0.1157 0.8076,0 0,-0.2272 c -0.0376,0.0439 -0.0933,0.0721 -0.1557,0.0721 -0.1122,0 -0.204,-0.0911 -0.204,-0.2038 0,-0.0493 0.0178,-0.0944 0.046,-0.1294 l 0.3163,3e-4 0.2013,0 0,0.488 2e-4,0 0,0.2496"
           id="path154"
           style="fill:#231f20;fill-opacity:1;fill-rule:nonzero;stroke:none" />
        <path
           d="m 40.0816,566.9063 0,0 c 0.1289,0.0372 0.203,0.1723 0.1654,0.3013 -0.0181,0.0621 -0.0594,0.1134 -0.1163,0.1448 -0.0577,0.0313 -0.1234,0.0385 -0.1854,0.0206 -0.0615,-0.0179 -0.1136,-0.0595 -0.1443,-0.1167 -0.0316,-0.0574 -0.0386,-0.1226 -0.0204,-0.1851 0.0367,-0.1281 0.1722,-0.2026 0.301,-0.1649"
           id="path156"
           style="fill:#231f20;fill-opacity:1;fill-rule:nonzero;stroke:none" />
        <path
           d="m 39.3792,566.362 0.0325,-0.2228 c 0,0 0.7901,0.1155 0.8002,0.1172 0.0099,-0.005 0.8015,-0.3966 0.8015,-0.3966 l -0.0391,0.2681 c 0,0 -0.5131,0.2544 -0.5537,0.2746 0.034,0.0312 0.4523,0.4177 0.4523,0.4177 l -0.0392,0.2684 -0.0229,-0.0223 c 0,0 -0.6212,-0.58 -0.6289,-0.5874 -0.0107,-10e-4 -0.8027,-0.1169 -0.8027,-0.1169"
           id="path158"
           style="fill:#231f20;fill-opacity:1;fill-rule:nonzero;stroke:none" />
        <path
           d="m 39.9993,565.5956 c 0.0013,-0.0646 0.0272,-0.125 0.0737,-0.1711 0.0469,-0.0453 0.1081,-0.07 0.1727,-0.069 0.0642,8e-4 0.1248,0.0265 0.1706,0.0735 0.0455,0.0463 0.0697,0.1078 0.0692,0.172 -3e-4,0.0651 -0.0266,0.1253 -0.0735,0.1712 -0.0465,0.0454 -0.1082,0.0701 -0.1724,0.0697 -0.1334,-0.002 -0.2414,-0.1123 -0.2403,-0.2463"
           id="path160"
           style="fill:#231f20;fill-opacity:1;fill-rule:nonzero;stroke:none" />
        <path
           d="m 40.7237,564.8038 c -0.0041,-0.0285 -0.0294,-0.21 -0.0294,-0.21 -0.0271,-0.1918 -0.1775,-0.1918 -0.2416,-0.1826 -0.121,0.0173 -0.1899,0.0933 -0.1899,0.2071 0,0.0137 0.001,0.0287 0.0027,0.0438 0,0 0.0219,0.1523 0.0289,0.2025 0.0304,-0.004 0.3995,-0.0563 0.4293,-0.0608 z m -1.2731,0.394 -0.0293,-0.2103 c 0,0 0.615,-0.0867 0.6471,-0.0914 -0.0039,-0.0278 -0.0263,-0.1844 -0.0263,-0.1844 -0.005,-0.0352 -0.0072,-0.0685 -0.0072,-0.1007 0,-0.1077 0.0275,-0.1987 0.0823,-0.271 0.0652,-0.0874 0.1669,-0.1429 0.2943,-0.1602 0.2752,-0.0386 0.4708,0.1074 0.509,0.3818 l 0.0618,0.4374 -1.5296,0.2155"
           id="path162"
           style="fill:#231f20;fill-opacity:1;fill-rule:nonzero;stroke:none" />
        <path
           d="m 39.3051,564.295 -0.2512,-0.7566 0.2166,-0.0724 c 0,0 0.1755,0.5274 0.1856,0.5577 0.0289,-0.01 0.3849,-0.1281 0.4136,-0.1377 -0.0101,-0.0301 -0.1735,-0.5217 -0.1735,-0.5217 l 0.2171,-0.0723 c 0,0 0.1636,0.4918 0.1733,0.5221 0.0286,-0.01 0.3723,-0.1237 0.401,-0.1333 -0.0101,-0.0301 -0.1802,-0.5402 -0.1802,-0.5402 l 0.2175,-0.0724 0.2512,0.7558 -1.4657,0.487"
           id="path164"
           style="fill:#231f20;fill-opacity:1;fill-rule:nonzero;stroke:none" />
        <path
           d="m 39.0112,563.4022 -0.1055,-0.1656 c 0,0 0.8764,-0.5565 0.9539,-0.6059 -0.0931,-0.008 -1.4168,-0.1234 -1.4168,-0.1234 l -0.1015,-0.1592 1.3036,-0.8278 0.1148,0.1794 c 0,0 -0.8826,0.5609 -0.9597,0.6097 0.0928,0.008 1.4289,0.1297 1.4289,0.1297 l 0.095,0.1493 -1.3035,0.8281"
           id="path166"
           style="fill:#231f20;fill-opacity:1;fill-rule:nonzero;stroke:none" />
        <path
           d="m 38.4876,561.5435 c -0.156,-0.0285 -0.3031,-0.0557 -0.3981,0.0413 -0.0465,0.0478 -0.0812,0.1631 0.025,0.2668 0.0915,0.0897 0.228,0.1209 0.3943,0.0897 l 0.0533,-0.01 -0.2352,0.2401 -0.0081,-4e-4 c -0.1517,-0.012 -0.2729,-0.0662 -0.3802,-0.1714 -0.0755,-0.0742 -0.1179,-0.1707 -0.1187,-0.2724 -0.0015,-0.1115 0.046,-0.2217 0.1333,-0.3108 0.1956,-0.2001 0.4144,-0.1523 0.6071,-0.1105 0.1434,0.0312 0.2668,0.0578 0.3487,-0.0258 0.0291,-0.0298 0.0439,-0.0662 0.0439,-0.1061 -7e-4,-0.0513 -0.0267,-0.1043 -0.072,-0.1488 -0.0766,-0.075 -0.1865,-0.1109 -0.3255,-0.1059 l -0.0426,10e-4 0.2082,-0.2121 0.0079,10e-4 c 0.1195,0.0164 0.2236,0.0646 0.3007,0.1406 0.0924,0.0902 0.1419,0.1957 0.1427,0.3045 0.0015,0.1059 -0.0436,0.2083 -0.1297,0.2962 -0.1609,0.1649 -0.3704,0.1261 -0.555,0.0918"
           id="path168"
           style="fill:#231f20;fill-opacity:1;fill-rule:nonzero;stroke:none" />
        <path
           d="m 37.5482,561.6174 -0.6615,-0.4455 0.1283,-0.19 c 0,0 0.4607,0.3101 0.4865,0.3282 0.0172,-0.025 0.2264,-0.3364 0.2437,-0.3612 -0.0259,-0.0182 -0.4562,-0.3077 -0.4562,-0.3077 l 0.128,-0.1895 c 0,0 0.43,0.2897 0.4561,0.3073 0.0173,-0.025 0.2194,-0.325 0.2358,-0.3502 -0.0261,-0.0178 -0.4722,-0.3182 -0.4722,-0.3182 l 0.1279,-0.19 0.6608,0.4454 -0.863,1.2808"
           id="path170"
           style="fill:#231f20;fill-opacity:1;fill-rule:nonzero;stroke:none" />
        <path
           d="m 31.8165,560.5972 c -0.0264,0.017 -0.5879,0.3728 -0.6145,0.3896 0.0174,0.0271 0.3519,0.5558 0.3519,0.5558 l -0.1935,0.123 -0.009,-0.0148 -0.8177,-1.2903 0.1939,-0.1228 c 0,0 0.3348,0.529 0.3521,0.5559 0.0266,-0.0171 0.5878,-0.3725 0.6149,-0.3896 -0.0176,-0.0274 -0.3525,-0.5552 -0.3525,-0.5552 l 0.1936,-0.123 0.8268,1.3047 -0.1939,0.1226 c 0,0 -0.335,-0.5283 -0.3521,-0.5559"
           id="path172"
           style="fill:#231f20;fill-opacity:1;fill-rule:nonzero;stroke:none" />
        <path
           d="m 30.7769,561.7415 c -0.0081,-0.1462 -0.0806,-0.2877 -0.2033,-0.397 -0.2415,-0.2149 -0.56,-0.211 -0.7574,0.01 -0.0897,0.1011 -0.1356,0.2291 -0.1278,0.3591 0.0086,0.146 0.0808,0.2866 0.2039,0.396 0.1226,0.109 0.2706,0.1644 0.4172,0.1561 0.1307,-0.008 0.2518,-0.0666 0.3417,-0.1676 0.0889,-0.0996 0.1334,-0.2262 0.1257,-0.3566 z m 0.2365,-0.0102 c 0.0109,0.1906 -0.053,0.3702 -0.1857,0.5189 -0.3282,0.3689 -0.7983,0.2972 -1.0921,0.0351 -0.1714,-0.153 -0.2725,-0.3512 -0.2842,-0.5595 -0.0114,-0.1914 0.0546,-0.3736 0.1905,-0.5263 0.2829,-0.3175 0.7509,-0.3309 1.0882,-0.0312 0.1683,0.1506 0.2713,0.3553 0.2833,0.563"
           id="path174"
           style="fill:#231f20;fill-opacity:1;fill-rule:nonzero;stroke:none" />
        <path
           d="m 30.2087,563.0383 c 0,0 -0.942,-0.4425 -1.0233,-0.481 0.0412,0.0822 0.647,1.2807 0.647,1.2807 l -0.0814,0.1746 -0.0156,-0.007 -1.3827,-0.6493 0.0926,-0.1972 c 0,0 0.9483,0.4459 1.0293,0.4843 -0.0408,-0.0822 -0.648,-1.2948 -0.648,-1.2948 l 0.0764,-0.1634 1.3977,0.6567"
           id="path176"
           style="fill:#231f20;fill-opacity:1;fill-rule:nonzero;stroke:none" />
        <path
           d="m 29.6799,564.4285 -0.0164,-0.005 -1.4814,-0.3727 0.0561,-0.2226 1.4974,0.3776"
           id="path178"
           style="fill:#231f20;fill-opacity:1;fill-rule:nonzero;stroke:none" />
        <path
           d="m 28.9628,564.9417 c -0.0524,0.0393 -0.1159,0.0563 -0.1799,0.0478 -0.0639,-0.009 -0.1207,-0.0422 -0.1607,-0.094 -0.0393,-0.0521 -0.0562,-0.1158 -0.0476,-0.1796 0.0087,-0.0642 0.0424,-0.1209 0.0944,-0.1604 0.0519,-0.0395 0.1153,-0.0565 0.1796,-0.0479 0.1324,0.0183 0.2259,0.141 0.2079,0.2737 -0.0088,0.0643 -0.042,0.1209 -0.0937,0.1604"
           id="path180"
           style="fill:#231f20;fill-opacity:1;fill-rule:nonzero;stroke:none" />
        <path
           d="m 28.8678,565.5266 c 0.0897,0.1305 0.1743,0.2537 0.3106,0.2525 0.0413,-4e-4 0.0844,-0.0201 0.1154,-0.0517 0.0375,-0.0381 0.0565,-0.0915 0.0557,-0.1546 -0.0013,-0.1283 -0.0758,-0.2467 -0.2153,-0.3429 l -0.0444,-0.0303 0.3361,-0.003 0.0052,0.006 c 0.0993,0.116 0.1461,0.2398 0.1478,0.3899 7e-4,0.1059 -0.0373,0.2038 -0.1089,0.2769 -0.0779,0.0793 -0.1897,0.1238 -0.3142,0.1252 -0.2795,0.003 -0.4003,-0.1852 -0.5072,-0.3515 -0.0795,-0.1233 -0.147,-0.2298 -0.265,-0.2286 -0.0411,7e-4 -0.078,0.0159 -0.1057,0.0442 -0.0357,0.0366 -0.0553,0.0922 -0.0546,0.1556 9e-4,0.1079 0.0531,0.211 0.1552,0.3057 l 0.0309,0.0287 -0.2968,0.003 -0.005,-0.007 c -0.0726,-0.0963 -0.1115,-0.2041 -0.1128,-0.3119 -0.0013,-0.1293 0.0383,-0.2389 0.1144,-0.3166 0.0739,-0.0753 0.178,-0.1162 0.3012,-0.1171 0.2307,-0.003 0.3511,0.1724 0.4574,0.3275"
           id="path182"
           style="fill:#231f20;fill-opacity:1;fill-rule:nonzero;stroke:none" />
        <path
           d="m 28.4094,567.0347 c 0.0327,0.1312 0.112,0.2408 0.2237,0.3086 0.1249,0.0754 0.2819,0.0953 0.4416,0.0559 0.1598,-0.0393 0.2892,-0.1303 0.3652,-0.2557 0.0674,-0.1121 0.0873,-0.2456 0.0549,-0.3767 -0.0698,-0.2827 -0.3558,-0.4391 -0.665,-0.3627 -0.3148,0.0779 -0.4917,0.3432 -0.4204,0.6306 z m 0.3637,-0.8584 c 0.2185,-0.0544 0.4463,-0.0235 0.6241,0.0841 0.1638,0.0987 0.2754,0.253 0.3229,0.4469 0.0493,0.1997 0.023,0.3921 -0.0768,0.5572 -0.107,0.1768 -0.2931,0.3092 -0.512,0.363 -0.4455,0.11 -0.8446,-0.1157 -0.9482,-0.537 -0.0156,-0.0629 -0.0234,-0.1255 -0.0234,-0.1865 0,-0.1288 0.0344,-0.2526 0.1022,-0.3646 0.1072,-0.1771 0.2933,-0.3097 0.5112,-0.3631"
           id="path184"
           style="fill:#231f20;fill-opacity:1;fill-rule:nonzero;stroke:none" />
        <path
           d="m 39.0658,568.8131 c 0.0397,0.009 0.4271,0.1056 0.4984,0.1231 -0.0418,-0.0598 -0.2714,-0.3907 -0.295,-0.4258 -0.0232,0.0344 -0.181,0.2693 -0.2034,0.3027 z m 0.0639,-0.5055 c -0.0042,-0.006 -0.037,-0.0544 -0.0785,-0.1153 l -3e-4,0.2325 c 0.0424,-0.063 0.0751,-0.1116 0.0788,-0.1172 z m -1.0488,-8.5097 c -0.4856,0.0672 -1.1279,0.2118 -1.9786,0.4774 -0.0388,0.0119 -0.0771,0.0247 -0.1163,0.0369 0.0808,0.4989 0.2459,0.8092 0.5128,0.9646 0.4396,0.2067 0.8425,0.4791 1.1956,0.8054 0.3089,0.2829 0.625,0.613 0.8744,1.0882 0.4046,0.694 0.6365,1.4998 0.6365,2.3585 0,0.4063 -0.0511,0.8055 -0.1514,1.1909 l -0.0017,0.7531 0.221,-0.5522 0.2123,0.0849 c 0,0 -0.2111,0.5278 -0.2225,0.5573 0.0303,0.0124 1.2213,0.4883 1.2213,0.4883 l -0.0835,0.2087 -0.0159,-0.006 -1.3331,-0.5328 0,0.0912 0.8873,1.2781 -0.0881,0.1307 -0.0114,-0.002 -0.7898,-0.1866 -0.002,1.4916 c 0.08,-0.0722 0.1586,-0.1472 0.2355,-0.2238 1.2751,-1.2751 1.9771,-2.9702 1.9771,-4.7734 0,-1.176 -0.3071,-2.3342 -0.8882,-3.3493 -0.5539,-0.9672 -1.346,-1.7882 -2.2913,-2.3794 z m 1.4046,0.151 c -0.1083,-0.0997 -0.339,-0.2045 -0.8284,-0.1984 0.3291,0.2368 0.6373,0.5016 0.9217,0.7903 0.0679,-0.2727 0.0376,-0.4715 -0.0933,-0.5919 z m -3.7444,-1.8174 c -1.1029,0.231 -2.3902,0.6453 -3.1468,0.9093 0.073,0.1836 0.1987,0.5011 0.3299,0.8315 l 0.2058,-0.0868 c -0.0011,-0.0124 -0.0019,-0.0249 -0.0019,-0.0385 0,-0.282 0.2294,-0.511 0.5112,-0.511 0.282,0 0.5115,0.229 0.5115,0.511 0,0.2824 -0.2295,0.5117 -0.5115,0.5117 -0.1512,0 -0.2863,-0.0664 -0.3801,-0.1705 l -0.2139,0.0897 c 0.1168,0.2945 0.2251,0.5683 0.2907,0.7343 0.7525,-0.3197 1.7285,-0.6964 2.6575,-0.9868 0.9819,-0.3066 1.7756,-0.4828 2.3896,-0.529 -1.0528,-0.5049 -2.5724,-1.2322 -2.642,-1.2649 z m -0.1599,-1.6598 c 0,-0.1425 -0.0321,-0.2777 -0.0896,-0.3999 -0.0543,-0.0906 -0.1536,-0.1511 -0.2667,-0.1511 -0.1365,0 -0.2527,0.0884 -0.294,0.2117 -0.0074,0.0228 -0.0237,0.0853 -0.0455,0.1734 0.0348,-0.0138 0.0734,-0.0218 0.1129,-0.0218 0.1697,0 0.3073,0.1378 0.3073,0.3072 0,0.1698 -0.1376,0.3074 -0.3073,0.3074 -0.0911,0 -0.1733,-0.0401 -0.2294,-0.1036 -0.0942,0.4009 -0.1935,0.8341 -0.1935,0.8341 l -0.0622,0 -0.0842,0 c 0,0 -0.0984,-0.432 -0.1929,-0.8328 -0.0564,0.0628 -0.1373,0.1023 -0.2278,0.1023 -0.1697,0 -0.3073,-0.1376 -0.3073,-0.3074 0,-0.1694 0.1376,-0.3072 0.3073,-0.3072 0.0387,0 0.0761,0.008 0.1104,0.0212 -0.0214,-0.0879 -0.0379,-0.1507 -0.0449,-0.1728 -0.0407,-0.1233 -0.1573,-0.2117 -0.2946,-0.2117 -0.1144,0 -0.2144,0.0618 -0.268,0.1544 -0.0567,0.1217 -0.0883,0.2556 -0.0883,0.3966 l 0,1.9136 c 0.6415,-0.2038 1.4189,-0.4294 2.1583,-0.589 l 0,-1.3246 z m -3.2964,2.6793 c -0.0631,0.0231 -0.1182,0.0436 -0.165,0.0609 l 5e-4,-3e-4 c -1.2685,0.4801 -2.353,1.3226 -3.1362,2.4365 -0.801,1.1396 -1.2248,2.4805 -1.2248,3.8785 0,1.8032 0.702,3.4983 1.9774,4.7734 0.0763,0.0766 0.1546,0.1509 0.2343,0.2235 l -0.0028,-1.8432 c -0.2876,0.1916 -0.6004,0.4001 -0.6155,0.4097 0.0178,0.0263 0.2608,0.3915 0.2608,0.3915 l -0.1901,0.1269 -0.0097,-0.0139 -0.639,-0.9602 0.1905,-0.1267 c 0,0 0.2432,0.3658 0.2605,0.3916 0.0168,-0.011 0.4285,-0.285 0.742,-0.4942 l -6e-4,-0.6463 -1.3033,0.6049 -0.007,-0.0154 -0.0896,-0.1924 1.3994,-0.6502 -0.0014,-0.7929 c -0.0993,-0.3832 -0.1506,-0.78 -0.1506,-1.1838 0,-0.8516 0.2279,-1.6507 0.6261,-2.3404 0.2589,-0.5001 0.5921,-0.8417 0.9142,-1.1345 0.1381,-0.1254 0.2835,-0.2417 0.4336,-0.349 0.0118,-0.008 0.0234,-0.0163 0.0347,-0.0242 0.0172,-0.012 0.0345,-0.024 0.0518,-0.0362 0.021,-0.0144 0.0424,-0.028 0.0637,-0.0421 0.0077,-0.005 0.0153,-0.0101 0.0231,-0.0152 0.1202,-0.0777 0.244,-0.1502 0.3712,-0.2174 l -0.0011,-0.002 c 0.1743,-0.0874 0.4157,-0.1999 0.702,-0.3257 l -0.2917,-0.7367 -0.1346,0.057 c -0.0839,0.0352 -0.1802,-0.004 -0.2156,-0.0877 -0.0351,-0.0839 0.004,-0.1799 0.0876,-0.2151 l 0.1413,-0.0601 -0.3361,-0.8486 z m -1.9534,7.4002 4.0831,0 0,-5.3476 c -0.8407,0.0182 -1.652,0.2799 -2.3405,0.7491 -0.0013,6e-4 -0.0021,10e-4 -0.0031,0.002 -0.0256,0.0175 -0.0509,0.0355 -0.0762,0.0533 -0.0092,0.007 -0.0183,0.0136 -0.0271,0.0198 -0.0173,0.0127 -0.0344,0.0254 -0.0513,0.038 -0.0214,0.0159 -0.0426,0.0324 -0.0638,0.0484 -0.0046,0.004 -0.0092,0.008 -0.0144,0.0114 -0.4397,0.3459 -0.8109,0.7747 -1.0898,1.2632 -0.2507,0.4973 -0.4183,1.1644 -0.4183,2.1429 l 0.0014,1.0197 z m 0.0019,1.1586 0.005,3.5683 0.633,0 3.4432,0 0,-4.5434 -4.0829,0 0.0017,0.9751 z m 0.0173,4.3294 1.034,-0.2135 -1.034,-0.2128 0,0.4263 z m 1.8611,0 1.0341,-0.2135 -1.0341,-0.2128 0,0.4263 z m 1.9094,0 1.0339,-0.2135 -1.0339,-0.2128 0,0.4263 z m 1.9094,0 1.0342,-0.2135 -1.0342,-0.2128 0,0.4263 z m -1.4327,-5.3045 0,4.5434 3.4502,0 0.6323,0 0.0053,-3.5683 0.0016,-0.9751 -4.0894,0 z m 1.2386,-5.7102 c -0.0814,-0.1697 -0.1423,-0.3706 -0.1844,-0.6031 -0.3948,0.1321 -0.7818,0.2732 -1.1444,0.4124 0.001,0 0.0016,0 0.0025,0 0.4604,0 0.9054,0.0667 1.3263,0.1907 z m -1.2386,0.1791 0,5.3476 4.0894,0 0.0018,-1.0197 c 0,-0.9926 -0.1729,-1.6652 -0.4298,-2.1647 -0.2122,-0.3666 -0.4768,-0.6991 -0.7835,-0.9883 -0.0193,-0.0176 -0.0387,-0.0354 -0.0578,-0.053 -0.7762,-0.7045 -1.7741,-1.101 -2.8201,-1.1219 z m 3.3136,10.8356 1.0344,-0.2135 -1.0344,-0.2128 0,0.4263 z m 3.7089,-6.5126 c 0,1.8992 -0.7396,3.685 -2.083,5.0278 -0.1567,0.1576 -0.3208,0.3063 -0.4899,0.447 l -3e-4,0.2757 c 0.2842,0.0138 0.5107,0.2479 0.5107,0.5357 0,0.2967 -0.2407,0.5371 -0.5367,0.5371 -0.012,0 -0.0229,-7e-4 -0.0345,-0.002 l 0.5247,0.2409 -0.2002,0.4379 0.7805,1.812 -0.3366,0.1449 -0.7919,-1.8393 -0.4236,-0.1942 0.276,-0.6035 -2.2843,0 -4.043,0 -2.292,0 0.2768,0.6035 -0.4269,0.1956 -0.7916,1.8379 -0.3363,-0.1449 0.7817,-1.8146 -0.1996,-0.4353 0.523,-0.2398 c -0.0038,0 -0.0077,7e-4 -0.012,7e-4 -0.2969,0 -0.537,-0.2404 -0.537,-0.5371 0,-0.2834 0.2196,-0.5144 0.4978,-0.5347 l -5e-4,-0.2774 c -0.1685,-0.14 -0.3328,-0.289 -0.4896,-0.4463 -1.3433,-1.3428 -2.0828,-3.1286 -2.0828,-5.0278 0,-1.4726 0.4462,-2.8854 1.2901,-4.0857 0.8254,-1.1734 1.968,-2.0611 3.3041,-2.5668 l 0,4e-4 c 0.0072,-0.003 0.0783,-0.0295 0.1991,-0.0727 0.0096,-0.1916 0.1311,-0.3685 0.3217,-0.4383 0.1967,-0.0712 0.41,-0.008 0.5393,0.1416 0.007,-0.003 0.0141,-0.005 0.0211,-0.008 l 0,-2.0257 c 0,-0.7446 0.6402,-1.3499 1.4276,-1.3499 0.7871,0 1.4277,0.6053 1.4277,1.3499 l 0,1.35 3.4943,1.6728 c 0.123,0.0468 0.2259,0.1083 0.3092,0.185 0.2782,0.2556 0.3226,0.6491 0.1316,1.17 0.3097,0.3544 0.5854,0.7396 0.8197,1.149 0.6126,1.0689 0.9356,2.2893 0.9356,3.5281"
           id="path186"
           style="fill:#231f20;fill-opacity:1;fill-rule:nonzero;stroke:none" />
        <path
           d="m 39.5054,575.3681 c -0.1142,0.3581 -0.4492,0.6169 -0.8445,0.6169 -0.3175,0 -0.5958,-0.1667 -0.7524,-0.4171 -0.1123,0.247 -0.3369,0.4396 -0.6231,0.5009 -0.3869,0.0819 -0.7686,-0.102 -0.9548,-0.4277 -0.1524,0.2669 -0.4401,0.4472 -0.7698,0.4472 -0.0232,0 -0.0458,-10e-4 -0.0685,-0.003 0.0187,0.1093 0.0408,0.2195 0.0679,0.3299 0.6671,-0.0889 1.2858,0.1626 1.887,0.406 0.4597,0.1869 0.8953,0.3635 1.3059,0.3635 0.1646,0 0.5335,-0.0894 0.7534,-0.4289 0.214,-0.3315 0.2129,-0.8079 -0.0011,-1.3877 z m -4.6413,1.4878 c -0.0944,0.0887 -0.2208,0.1444 -0.3603,0.1444 -0.1372,0 -0.2612,-0.0529 -0.3549,-0.1388 -6e-4,0.007 -9e-4,0.0149 -9e-4,0.0222 0,0.198 0.1603,0.359 0.3587,0.359 0.1978,0 0.3587,-0.161 0.3587,-0.359 0,-0.01 -8e-4,-0.0183 -0.0013,-0.0278 z m -0.0228,-0.5042 c -0.0913,0.0769 -0.2092,0.1236 -0.3375,0.1236 -0.129,0 -0.2466,-0.0467 -0.3384,-0.1236 -0.0134,0.0377 -0.0205,0.0784 -0.0205,0.1207 0,0.198 0.1606,0.3588 0.3589,0.3588 0.198,0 0.3582,-0.1608 0.3582,-0.3588 0,-0.0423 -0.007,-0.083 -0.0207,-0.1207 z m -0.3375,-0.7616 c -0.1983,0 -0.3589,0.1603 -0.3589,0.3584 0,0.1984 0.1606,0.3591 0.3589,0.3591 0.198,0 0.3582,-0.1607 0.3582,-0.3591 0,-0.1981 -0.1602,-0.3584 -0.3582,-0.3584 z m 0,1.9954 c 0.1829,0 0.3339,-0.1374 0.3558,-0.3151 -0.094,0.0865 -0.219,0.1395 -0.3558,0.1395 -0.1378,0 -0.2624,-0.053 -0.3558,-0.1395 0.0213,0.1777 0.1722,0.3151 0.3558,0.3151 z m 0,0.339 c 0.181,0 0.3305,-0.1348 0.3547,-0.3092 -0.0941,0.0857 -0.2182,0.1387 -0.3547,0.1387 -0.1372,0 -0.2615,-0.053 -0.3555,-0.1387 0.0247,0.1744 0.1738,0.3092 0.3555,0.3092 z m -1.055,-1.8362 c -0.3295,0 -0.6172,-0.1803 -0.7699,-0.4472 -0.1863,0.3257 -0.5679,0.5096 -0.9548,0.4277 -0.286,-0.061 -0.5098,-0.2529 -0.6226,-0.5001 -0.1567,0.2502 -0.4351,0.4163 -0.7517,0.4163 -0.3958,0 -0.7315,-0.2595 -0.8455,-0.6182 -0.2144,0.5808 -0.2158,1.0574 -8e-4,1.389 0.2191,0.3395 0.5886,0.4289 0.7531,0.4289 0.4112,0 0.846,-0.1766 1.3063,-0.3635 0.6001,-0.2434 1.2196,-0.4949 1.8869,-0.406 0.0264,-0.1104 0.0492,-0.2206 0.0679,-0.3299 -0.0231,0.002 -0.0458,0.003 -0.0689,0.003 z m 6.3754,0.8731 c -0.2693,0.4155 -0.7321,0.6013 -1.0711,0.6013 -0.4853,0 -0.9749,-0.1986 -1.4485,-0.3908 -0.5349,-0.2174 -1.0865,-0.4405 -1.64,-0.3876 0.0677,0.2049 0.149,0.3987 0.241,0.5651 l -0.335,0.1658 c 0.0682,0.127 0.1157,0.2675 0.1351,0.4163 -0.0383,0.0148 -0.4863,0.1759 -1.221,0.1759 -0.7326,0 -1.1475,-0.1601 -1.1815,-0.1736 0.0194,-0.1502 0.0665,-0.2913 0.1357,-0.4186 l -0.3347,-0.1658 c 0.0925,-0.1664 0.173,-0.3602 0.241,-0.5651 -0.5535,-0.0529 -1.1049,0.1702 -1.6403,0.3876 -0.4736,0.1922 -0.9635,0.3908 -1.4483,0.3908 -0.3393,0 -0.8017,-0.1858 -1.0707,-0.6013 -0.2214,-0.3416 -0.3878,-0.9656 0.0739,-1.9937 l 3e-4,0 -0.0074,0.0162 0.6869,0.2981 0.0486,-0.1121 c -0.2271,-0.0979 -0.4416,-0.3595 -0.1882,-0.9475 0.5881,0.2527 0.6136,0.5903 0.5156,0.8175 l 0.1124,0.0478 0.2908,-0.6765 0.2919,-0.677 -0.1123,-0.0487 c -0.0977,0.2272 -0.3602,0.4413 -0.948,0.1883 0.253,-0.5879 0.7144,-0.8314 1.0654,-0.8314 0.6091,0 1.0598,0.3787 0.9953,0.758 -0.048,0.2821 -0.3058,0.3815 -0.4033,0.363 -0.1237,-0.0239 -0.1987,-0.149 -0.1795,-0.2458 0.0048,-0.0221 0.0132,-0.0428 0.0247,-0.0605 l -0.016,-0.0234 c -0.1628,0.0136 -0.303,0.1339 -0.3353,0.3026 -0.0386,0.2029 0.0943,0.399 0.2975,0.4375 0.1237,0.0236 0.2446,-0.0167 0.329,-0.0977 l 0.0407,0.0599 c -0.1099,0.0582 -0.1932,0.1629 -0.2183,0.2946 -0.0616,0.3233 0.3033,0.6365 0.3092,0.6394 l -5e-4,0 5e-4,2e-4 0,-2e-4 c 0.0054,-2e-4 0.4602,-0.1577 0.5219,-0.4809 0.025,-0.1325 -0.0144,-0.262 -0.0959,-0.3565 l 0.0602,-0.041 c 0.0484,0.1073 0.1466,0.1908 0.271,0.2144 0.203,0.0385 0.3991,-0.0944 0.4381,-0.2976 0.0318,-0.1684 -0.0542,-0.3318 -0.2009,-0.4046 l -0.0234,0.0161 c 0.0045,0.021 0.0045,0.0431 3e-4,0.0651 -0.0172,0.0977 -0.1331,0.1862 -0.2568,0.1626 -0.0971,-0.0187 -0.2945,-0.2056 -0.2413,-0.4854 0.0909,-0.4779 0.4901,-0.8214 0.9763,-0.8214 0.4854,0 0.9901,0.4029 0.9901,0.9928 -0.6908,0 -0.8595,-0.3235 -0.8595,-0.5901 l -0.1317,0 0,0.7948 0,0.7959 0.1317,0 c 0,-0.2666 0.1687,-0.591 0.8595,-0.591 0,0.6907 -0.3238,0.8595 -0.591,0.8595 l 0,0.1319 0.6845,0 0.2234,0 0.6845,0 0,-0.1319 c -0.2674,0 -0.591,-0.1688 -0.591,-0.8595 0.6902,0 0.8594,0.3244 0.8594,0.591 l 0.1313,0 0,-0.7959 0,-0.7948 -0.1313,0 c 0,0.2666 -0.1692,0.5901 -0.8594,0.5901 0,-0.5899 0.5044,-0.9928 0.9901,-0.9928 0.4859,0 0.8859,0.3435 0.9759,0.8214 0.0534,0.2798 -0.144,0.4667 -0.2408,0.4854 -0.1241,0.0236 -0.2399,-0.0649 -0.2572,-0.1626 -0.0039,-0.022 -0.0039,-0.0441 4e-4,-0.0651 l -0.0235,-0.0161 c -0.146,0.0728 -0.2326,0.2362 -0.2007,0.4046 0.0389,0.2032 0.235,0.3361 0.4378,0.2976 0.1254,-0.024 0.2241,-0.108 0.2727,-0.2165 l 0.0596,0.0426 c -0.0824,0.094 -0.1221,0.2243 -0.0969,0.357 0.0621,0.3239 0.5182,0.4809 0.5224,0.4809 l 0,2e-4 0,-2e-4 c 0.0053,-0.002 0.3707,-0.3161 0.3085,-0.6394 -0.0251,-0.1326 -0.11,-0.2389 -0.2207,-0.2968 l 0.0396,-0.0616 c 0.085,0.0838 0.2074,0.1255 0.3328,0.1016 0.2033,-0.0385 0.3365,-0.2346 0.2975,-0.4375 -0.0318,-0.1687 -0.1727,-0.289 -0.3349,-0.3026 l -0.0159,0.0234 c 0.0112,0.0177 0.0199,0.0384 0.0243,0.0605 0.0191,0.0968 -0.0555,0.2219 -0.1795,0.2458 -0.0971,0.0185 -0.3554,-0.0809 -0.4033,-0.363 -0.0649,-0.3793 0.3868,-0.758 0.9952,-0.758 0.3512,0 0.8123,0.2435 1.0652,0.8314 -0.5873,0.253 -0.8497,0.0389 -0.9479,-0.1883 l -0.112,0.0487 0.2914,0.677 0.2911,0.6765 0.1128,-0.0478 c -0.0982,-0.2272 -0.0724,-0.5648 0.5155,-0.8175 0.253,0.588 0.0385,0.8496 -0.1882,0.9475 l 0.0477,0.1121 0.6876,-0.2981 -0.0073,-0.016 4e-4,-2e-4 c 0.4621,1.0281 0.2956,1.6521 0.0747,1.9937"
           id="path188"
           style="fill:#231f20;fill-opacity:1;fill-rule:nonzero;stroke:none" />
        <path
           d="m 36.6295,571.0227 -0.0011,0 -0.1329,0 0.0693,-0.1595 0.0636,-0.002 0.0162,-0.001 -0.0253,-0.0455 0.0375,0.0395 0.007,-0.009 0.0302,0.0196 0.0685,0.1581"
           id="path190"
           style="fill:#231f20;fill-opacity:1;fill-rule:nonzero;stroke:none" />
        <path
           d="m 34.9783,570.8929 -0.0237,-0.024 0.0029,-0.0633 -0.1357,0.0199 0.0021,0.0913 -0.0993,0.1821 0.0235,0.0239 0.1759,-0.1011 0.1035,0 0,-0.1454 -0.0501,0.0192"
           id="path192"
           style="fill:#231f20;fill-opacity:1;fill-rule:nonzero;stroke:none" />
        <path
           d="m 35.0762,570.9165 c -0.025,0 -0.046,0.0206 -0.046,0.0458 0,0.0251 0.021,0.0455 0.046,0.0455 0.0149,0 0.0279,-0.008 0.0364,-0.0192 l 0.0149,0 c 0.0033,0.01 0.0057,0.0206 0.0057,0.0317 0,0.0575 -0.0471,0.1042 -0.1041,0.1042 -0.0569,0 -0.1035,-0.0467 -0.1035,-0.1042 0,-0.0573 0.0466,-0.1038 0.1035,-0.1038 l 0.0484,3e-4 c -5e-4,0 -10e-4,-3e-4 -0.0013,-3e-4"
           id="path194"
           style="fill:#231f20;fill-opacity:1;fill-rule:nonzero;stroke:none" />
        <path
           d="m 34.9279,570.7683 c 0,0.0253 -0.0207,0.0458 -0.0459,0.0458 -0.0259,0 -0.0458,-0.0205 -0.0458,-0.0458 0,-0.0156 0.008,-0.0284 0.0196,-0.0364 l 0,-0.0153 c -0.0101,-0.003 -0.0209,-0.006 -0.0319,-0.006 -0.0574,0 -0.104,0.0469 -0.104,0.1038 0,0.0575 0.0466,0.1045 0.104,0.1045 0.057,0 0.104,-0.047 0.104,-0.1045 l -5e-4,-0.0478 c 0,5e-4 5e-4,10e-4 5e-4,10e-4"
           id="path196"
           style="fill:#231f20;fill-opacity:1;fill-rule:nonzero;stroke:none" />
        <path
           d="m 34.9783,567.0961 -0.0237,0.0242 0.0029,0.0627 -0.1357,-0.0195 0.0021,-0.0916 -0.0993,-0.1819 0.0235,-0.0237 0.1759,0.1011 0.1035,0 0,0.1456 -0.0501,-0.02"
           id="path198"
           style="fill:#231f20;fill-opacity:1;fill-rule:nonzero;stroke:none" />
        <path
           d="m 35.0762,567.0725 c -0.025,0 -0.046,-0.0208 -0.046,-0.0456 0,-0.0254 0.021,-0.046 0.046,-0.046 0.0149,0 0.0279,0.008 0.0364,0.0195 l 0.0149,0 c 0.0033,-0.01 0.0057,-0.0203 0.0057,-0.032 0,-0.0573 -0.0471,-0.1037 -0.1041,-0.1037 -0.0569,0 -0.1035,0.0464 -0.1035,0.1037 0,0.0574 0.0466,0.1041 0.1035,0.1041 l 0.0484,-6e-4 c -5e-4,0 -10e-4,6e-4 -0.0013,6e-4"
           id="path200"
           style="fill:#231f20;fill-opacity:1;fill-rule:nonzero;stroke:none" />
        <path
           d="m 34.9279,567.2205 c 0,-0.0251 -0.0207,-0.0458 -0.0459,-0.0458 -0.0259,0 -0.0458,0.0207 -0.0458,0.0458 0,0.0153 0.008,0.0283 0.0196,0.0366 l 0,0.0154 c -0.0101,0.003 -0.0209,0.005 -0.0319,0.005 -0.0574,0 -0.104,-0.0466 -0.104,-0.104 0,-0.0575 0.0466,-0.1038 0.104,-0.1038 0.057,0 0.104,0.0463 0.104,0.1038 l -5e-4,0.0483 c 0,-5e-4 5e-4,-10e-4 5e-4,-0.002"
           id="path202"
           style="fill:#231f20;fill-opacity:1;fill-rule:nonzero;stroke:none" />
        <path
           d="m 38.2771,567.0961 0.0236,0.0242 -0.0031,0.0627 0.1357,-0.0195 -0.0018,-0.0916 0.0991,-0.1819 -0.0243,-0.0237 -0.1749,0.1011 -0.1038,0 0,0.1456 0.0504,-0.02"
           id="path204"
           style="fill:#231f20;fill-opacity:1;fill-rule:nonzero;stroke:none" />
        <path
           d="m 38.1792,567.0725 c 0.0252,0 0.0457,-0.0208 0.0457,-0.0456 0,-0.0254 -0.0205,-0.046 -0.0457,-0.046 -0.015,0 -0.0282,0.008 -0.0364,0.0195 l -0.0156,0 c -0.0028,-0.01 -0.0052,-0.0203 -0.0052,-0.032 0,-0.0573 0.0471,-0.1037 0.104,-0.1037 0.0572,0 0.104,0.0464 0.104,0.1037 0,0.0574 -0.0468,0.1041 -0.104,0.1041 l -0.0479,-6e-4 c 0,0 0,6e-4 0.0011,6e-4"
           id="path206"
           style="fill:#231f20;fill-opacity:1;fill-rule:nonzero;stroke:none" />
        <path
           d="m 38.3271,567.2205 c 0,-0.0251 0.021,-0.0458 0.0458,-0.0458 0.0256,0 0.0458,0.0207 0.0458,0.0458 0,0.0153 -0.0075,0.0283 -0.0192,0.0366 l 0,0.0154 c 0.0101,0.003 0.0202,0.005 0.032,0.005 0.0571,0 0.1035,-0.0466 0.1035,-0.104 0,-0.0575 -0.0464,-0.1038 -0.1035,-0.1038 -0.0572,0 -0.1044,0.0463 -0.1044,0.1038 l 6e-4,0.0483 c 0,-5e-4 -6e-4,-10e-4 -6e-4,-0.002"
           id="path208"
           style="fill:#231f20;fill-opacity:1;fill-rule:nonzero;stroke:none" />
        <path
           d="m 38.2782,570.8929 0.0237,-0.024 -0.0032,-0.0633 0.1357,0.0199 -0.0019,0.0913 0.0992,0.1821 -0.0233,0.0239 -0.1757,-0.1011 -0.104,0 0,-0.1454 0.0505,0.0192"
           id="path210"
           style="fill:#231f20;fill-opacity:1;fill-rule:nonzero;stroke:none" />
        <path
           d="m 38.1802,570.9165 c 0.0258,0 0.0458,0.0206 0.0458,0.0458 0,0.0251 -0.02,0.0455 -0.0458,0.0455 -0.0148,0 -0.0276,-0.008 -0.0364,-0.0192 l -0.015,0 c -0.0034,0.01 -0.0052,0.0206 -0.0052,0.0317 0,0.0575 0.0465,0.1042 0.104,0.1042 0.0572,0 0.1038,-0.0467 0.1038,-0.1042 0,-0.0573 -0.0466,-0.1038 -0.1038,-0.1038 l -0.0484,3e-4 c 5e-4,0 10e-4,-3e-4 10e-4,-3e-4"
           id="path212"
           style="fill:#231f20;fill-opacity:1;fill-rule:nonzero;stroke:none" />
        <path
           d="m 38.3287,570.7683 c 0,0.0253 0.0208,0.0458 0.0461,0.0458 0.0247,0 0.0457,-0.0205 0.0457,-0.0458 0,-0.0156 -0.0084,-0.0284 -0.0196,-0.0364 l 0,-0.0153 c 0.0103,-0.003 0.0204,-0.006 0.0316,-0.006 0.0575,0 0.104,0.0469 0.104,0.1038 0,0.0575 -0.0465,0.1045 -0.104,0.1045 -0.0574,0 -0.1038,-0.047 -0.1038,-0.1045 l 0,-0.0478 c 0,5e-4 0,10e-4 0,10e-4"
           id="path214"
           style="fill:#231f20;fill-opacity:1;fill-rule:nonzero;stroke:none" />
        <path
           d="m 36.4766,570.5084 0.2949,0 0,0.1284 -0.2949,0 0,-0.1284 z"
           id="path216"
           style="fill:#231f20;fill-opacity:1;fill-rule:nonzero;stroke:none" />
        <path
           d="m 36.552,570.3853 0.1509,0 0,0.1232 -0.1509,0 0,-0.1232 z"
           id="path218"
           style="fill:#231f20;fill-opacity:1;fill-rule:nonzero;stroke:none" />
        <path
           d="m 36.812,570.5845 c -8e-4,0 -8e-4,-5e-4 -0.0014,-5e-4 l 0.0025,0 c -4e-4,0 -4e-4,5e-4 -0.0011,5e-4"
           id="path220"
           style="fill:#231f20;fill-opacity:1;fill-rule:nonzero;stroke:none" />
        <path
           d="m 36.8369,570.5305 c -0.006,-0.007 -0.0145,-0.0126 -0.0249,-0.0126 -0.0182,0 -0.0331,0.0149 -0.0331,0.0333 0,0.018 0.0144,0.0321 0.0317,0.0328 l -0.0325,5e-4 c -0.0419,0 -0.0755,-0.034 -0.0755,-0.0754 0,-0.0418 0.0336,-0.0758 0.0755,-0.0758 0.0416,0 0.0756,0.034 0.0756,0.0758 0,0.002 -0.001,0.004 -0.001,0.006"
           id="path222"
           style="fill:#231f20;fill-opacity:1;fill-rule:nonzero;stroke:none" />
        <path
           d="m 36.4426,570.5845 c 9e-4,0 0.0014,-5e-4 0.0014,-5e-4 l -0.0017,0"
           id="path224"
           style="fill:#231f20;fill-opacity:1;fill-rule:nonzero;stroke:none" />
        <path
           d="m 36.4181,570.5305 c 0.0056,-0.007 0.0144,-0.0126 0.0245,-0.0126 0.0187,0 0.0335,0.0149 0.0335,0.0333 0,0.018 -0.0141,0.0321 -0.0321,0.0328 l 0.0329,5e-4 c 0.0418,0 0.0751,-0.034 0.0751,-0.0754 0,-0.0418 -0.0333,-0.0758 -0.0751,-0.0758 -0.0419,0 -0.0755,0.034 -0.0755,0.0758 0,0.002 0.0011,0.004 0.0011,0.006"
           id="path226"
           style="fill:#231f20;fill-opacity:1;fill-rule:nonzero;stroke:none" />
        <path
           d="m 36.6284,566.9647 0.0011,0 0.133,0 -0.0685,0.1596 -0.0645,0.002 -0.0153,9e-4 0.0245,0.0458 -0.0372,-0.0393 -0.0074,0.009 -0.0293,-0.0192 -0.0693,-0.1586"
           id="path228"
           style="fill:#231f20;fill-opacity:1;fill-rule:nonzero;stroke:none" />
        <path
           d="m 36.4799,567.3551 0.2949,0 0,0.1285 -0.2949,0 0,-0.1285 z"
           id="path230"
           style="fill:#231f20;fill-opacity:1;fill-rule:nonzero;stroke:none" />
        <path
           d="m 36.552,567.4796 0.1509,0 0,0.1234 -0.1509,0 0,-0.1234 z"
           id="path232"
           style="fill:#231f20;fill-opacity:1;fill-rule:nonzero;stroke:none" />
        <path
           d="m 36.4429,567.4036 c 0.0011,0 0.0011,0 0.0011,0 l -0.0017,0 c 3e-4,0 3e-4,0 6e-4,0"
           id="path234"
           style="fill:#231f20;fill-opacity:1;fill-rule:nonzero;stroke:none" />
        <path
           d="m 36.4181,567.4575 c 0.0061,0.007 0.0149,0.0127 0.0248,0.0127 0.0188,0 0.0337,-0.0149 0.0337,-0.0331 0,-0.0177 -0.0142,-0.0328 -0.0321,-0.0335 l 0.0324,0 c 0.0418,0 0.0754,0.0339 0.0754,0.0755 0,0.0421 -0.0336,0.0755 -0.0754,0.0755 -0.0415,0 -0.0748,-0.0334 -0.0748,-0.0755 0,-0.002 4e-4,-0.004 4e-4,-0.006"
           id="path236"
           style="fill:#231f20;fill-opacity:1;fill-rule:nonzero;stroke:none" />
        <path
           d="m 36.812,567.4036 c 0,0 -8e-4,0 -0.0014,0 l 0.0025,0 c 0,0 -4e-4,0 -0.0011,0"
           id="path238"
           style="fill:#231f20;fill-opacity:1;fill-rule:nonzero;stroke:none" />
        <path
           d="m 36.8373,567.4575 c -0.0064,0.007 -0.0144,0.0127 -0.0253,0.0127 -0.0182,0 -0.0331,-0.0149 -0.0331,-0.0331 0,-0.0177 0.0144,-0.0328 0.0317,-0.0335 l -0.0325,0 c -0.0414,0 -0.0755,0.0339 -0.0755,0.0755 0,0.0421 0.0341,0.0755 0.0755,0.0755 0.0421,0 0.0756,-0.0334 0.0756,-0.0755 0,-0.002 -0.001,-0.004 -0.001,-0.006"
           id="path240"
           style="fill:#231f20;fill-opacity:1;fill-rule:nonzero;stroke:none" />
        <path
           d="m 38.4362,568.996 0,8e-4 0,0.1329 -0.1586,-0.0689 -0.0027,-0.064 -0.0015,-0.0158 -0.0458,0.0249 0.0396,-0.0369 -0.0087,-0.008 0.0197,-0.0296 0.158,-0.0688"
           id="path242"
           style="fill:#231f20;fill-opacity:1;fill-rule:nonzero;stroke:none" />
        <path
           d="m 37.9197,568.845 0.1284,0 0,0.2947 -0.1284,0 0,-0.2947 z"
           id="path244"
           style="fill:#231f20;fill-opacity:1;fill-rule:nonzero;stroke:none" />
        <path
           d="m 37.8019,568.9187 0.124,0 0,0.1516 -0.124,0 0,-0.1516 z"
           id="path246"
           style="fill:#231f20;fill-opacity:1;fill-rule:nonzero;stroke:none" />
        <path
           d="m 37.998,568.8102 c 0,7e-4 -5e-4,7e-4 -5e-4,10e-4 l 0,-0.002 c 0,7e-4 5e-4,7e-4 5e-4,10e-4"
           id="path248"
           style="fill:#231f20;fill-opacity:1;fill-rule:nonzero;stroke:none" />
        <path
           d="m 37.9477,568.7851 c -0.0074,0.006 -0.013,0.0148 -0.013,0.0251 0,0.0187 0.015,0.0334 0.0339,0.0334 0.0174,0 0.0318,-0.0141 0.0325,-0.0321 l 3e-4,0.0326 c 0,0.0418 -0.0338,0.0753 -0.0755,0.0753 -0.0416,0 -0.0754,-0.0335 -0.0754,-0.0753 0,-0.0414 0.0338,-0.0753 0.0754,-0.0753 0.0024,0 0.0044,8e-4 0.0061,10e-4"
           id="path250"
           style="fill:#231f20;fill-opacity:1;fill-rule:nonzero;stroke:none" />
        <path
           d="m 37.998,569.1794 c 0,-3e-4 -5e-4,-8e-4 -5e-4,-10e-4 l 0,0.002 c 0,-5e-4 5e-4,-5e-4 5e-4,-10e-4"
           id="path252"
           style="fill:#231f20;fill-opacity:1;fill-rule:nonzero;stroke:none" />
        <path
           d="m 37.9477,569.204 c -0.0074,-0.006 -0.013,-0.0142 -0.013,-0.0246 0,-0.0185 0.015,-0.0335 0.0339,-0.0335 0.0174,0 0.0318,0.0146 0.0325,0.0322 l 3e-4,-0.0327 c 0,-0.0416 -0.0338,-0.0755 -0.0755,-0.0755 -0.0416,0 -0.0754,0.0339 -0.0754,0.0755 0,0.0419 0.0338,0.0755 0.0754,0.0755 0.0024,0 0.0044,-10e-4 0.0061,-10e-4"
           id="path254"
           style="fill:#231f20;fill-opacity:1;fill-rule:nonzero;stroke:none" />
        <path
           d="m 34.8215,568.996 0,8e-4 0,0.1329 0.1584,-0.0689 0.0029,-0.064 0.0013,-0.0158 0.0455,0.0249 -0.0393,-0.0369 0.0087,-0.008 -0.0192,-0.0296 -0.1583,-0.0688"
           id="path256"
           style="fill:#231f20;fill-opacity:1;fill-rule:nonzero;stroke:none" />
        <path
           d="m 35.21,568.845 0.128,0 0,0.2947 -0.128,0 0,-0.2947 z"
           id="path258"
           style="fill:#231f20;fill-opacity:1;fill-rule:nonzero;stroke:none" />
        <path
           d="m 35.3322,568.9187 0.123,0 0,0.1516 -0.123,0 0,-0.1516 z"
           id="path260"
           style="fill:#231f20;fill-opacity:1;fill-rule:nonzero;stroke:none" />
        <path
           d="m 35.2595,568.8102 c 0,7e-4 0.0011,7e-4 0.0011,10e-4 l 0,-0.002 c 0,7e-4 -0.0011,7e-4 -0.0011,10e-4"
           id="path262"
           style="fill:#231f20;fill-opacity:1;fill-rule:nonzero;stroke:none" />
        <path
           d="m 35.3101,568.7851 c 0.0074,0.006 0.0127,0.0148 0.0127,0.0251 0,0.0187 -0.0148,0.0334 -0.0332,0.0334 -0.018,0 -0.0324,-0.0141 -0.033,-0.0321 l -3e-4,0.0326 c 0,0.0418 0.0339,0.0753 0.075,0.0753 0.0421,0 0.0762,-0.0335 0.0762,-0.0753 0,-0.0414 -0.0341,-0.0753 -0.0762,-0.0753 -0.0018,0 -0.0034,8e-4 -0.006,10e-4"
           id="path264"
           style="fill:#231f20;fill-opacity:1;fill-rule:nonzero;stroke:none" />
        <path
           d="m 35.2595,569.1794 c 0,-3e-4 0.0011,-8e-4 0.0011,-10e-4 l 0,0.002 c 0,-5e-4 -0.0011,-5e-4 -0.0011,-10e-4"
           id="path266"
           style="fill:#231f20;fill-opacity:1;fill-rule:nonzero;stroke:none" />
        <path
           d="m 35.3101,569.204 c 0.0074,-0.006 0.0127,-0.0142 0.0127,-0.0246 0,-0.0185 -0.0148,-0.0335 -0.0332,-0.0335 -0.018,0 -0.0324,0.0146 -0.033,0.0322 l -3e-4,-0.0327 c 0,-0.0416 0.0339,-0.0755 0.075,-0.0755 0.0421,0 0.0762,0.0339 0.0762,0.0755 0,0.0419 -0.0341,0.0755 -0.0762,0.0755 -0.0018,0 -0.0034,-10e-4 -0.006,-10e-4"
           id="path268"
           style="fill:#231f20;fill-opacity:1;fill-rule:nonzero;stroke:none" />
      </g>
    </g>
  </g>
</svg>
