<svg id="svg" version="1.1" xmlns="http://www.w3.org/2000/svg" xmlns:xlink="http://www.w3.org/1999/xlink" width="400" height="215.41066892464013" viewBox="0, 0, 400,215.41066892464013"><g id="svgg">
  <path id="path0" d="M40.948 0.339 C 25.784 1.948,13.205 9.971,6.000 22.629 C 4.986 24.411,4.474 25.466,3.123 28.556 C 2.211 30.641,0.961 35.486,0.398 39.116 C 0.021 41.547,-0.140 87.236,0.219 89.871 C 3.146 111.343,16.877 126.123,37.392 129.885 C 40.297 130.418,362.979 130.514,366.056 129.983 C 374.867 128.463,381.638 125.117,387.689 119.294 C 411.529 96.349,398.638 56.169,365.841 51.198 C 364.043 50.926,359.788 50.858,340.194 50.790 C 320.072 50.721,316.548 50.662,315.625 50.385 C 304.913 47.163,304.989 32.263,315.733 29.414 C 316.735 29.149,320.390 29.100,339.386 29.097 L 361.853 29.095 361.853 23.168 L 361.853 17.241 338.847 17.241 C 314.210 17.241,314.550 17.228,311.207 18.329 C 304.219 20.631,299.278 25.687,296.581 33.297 C 292.750 44.110,299.643 57.560,310.991 61.417 C 314.494 62.607,313.510 62.563,339.763 62.707 C 361.874 62.828,364.265 62.875,365.733 63.216 C 386.489 68.046,394.908 91.821,381.682 108.261 C 377.732 113.172,372.327 116.415,365.409 118.025 C 363.742 118.414,360.660 118.427,271.875 118.427 L 180.065 118.427 177.976 117.944 C 164.239 114.767,154.494 104.689,152.160 91.245 C 151.496 87.425,151.485 43.282,152.147 39.547 C 154.757 24.812,166.269 13.888,180.864 12.297 C 183.727 11.985,225.913 11.987,228.925 12.299 C 246.225 14.093,258.190 28.283,258.190 47.008 L 258.190 50.617 264.063 50.578 L 269.935 50.539 270.001 46.983 C 270.096 41.902,269.518 36.795,268.416 32.974 C 268.227 32.322,267.998 31.498,267.907 31.142 C 265.325 21.140,255.619 9.938,245.046 4.757 C 236.054 0.350,233.110 0.001,204.933 0.000 C 179.796 -0.000,178.722 0.070,171.013 2.220 C 157.353 6.028,144.919 19.036,141.306 33.297 C 139.830 39.120,139.871 38.223,139.871 65.314 C 139.871 93.177,139.920 93.942,142.124 100.187 C 142.305 100.702,142.400 101.210,142.335 101.316 C 142.158 101.602,45.090 101.565,43.319 101.279 C 36.437 100.164,30.998 95.024,29.422 88.147 C 28.919 85.949,28.939 44.729,29.444 42.429 C 30.837 36.091,36.051 30.915,42.457 29.510 C 44.470 29.068,86.130 29.052,87.931 29.492 C 96.480 31.580,101.185 37.712,101.185 46.767 L 101.185 50.754 70.740 50.809 L 40.295 50.864 40.352 56.736 L 40.409 62.608 76.778 62.662 L 113.147 62.717 113.135 52.641 C 113.123 42.146,113.137 42.349,112.162 38.039 C 109.855 27.837,99.643 19.142,87.998 17.465 C 85.462 17.099,44.358 17.172,41.918 17.547 C 29.233 19.492,19.689 28.757,17.575 41.180 C 17.027 44.403,17.186 88.361,17.755 90.733 C 20.137 100.667,27.094 108.545,36.315 111.750 C 40.979 113.371,35.275 113.217,95.515 113.350 L 149.328 113.470 150.143 114.440 C 150.592 114.973,151.567 116.048,152.311 116.828 C 153.055 117.608,153.664 118.312,153.664 118.394 C 153.664 118.475,128.133 118.515,96.929 118.483 L 40.194 118.424 38.217 117.942 C 23.000 114.233,13.337 103.108,12.058 87.823 C 11.671 83.201,11.914 41.980,12.341 39.763 C 13.106 35.790,13.879 33.387,15.290 30.603 C 16.941 27.345,18.124 25.575,20.301 23.109 C 25.579 17.130,33.269 13.152,41.209 12.295 C 44.030 11.990,86.327 11.988,89.179 12.292 C 103.824 13.854,115.616 25.076,118.016 39.737 C 118.347 41.755,118.535 67.149,118.223 67.654 C 118.119 67.821,106.968 67.888,79.186 67.888 L 40.295 67.888 40.352 73.761 L 40.409 79.634 85.345 79.634 L 130.280 79.634 130.344 61.530 C 130.410 42.514,130.312 39.868,129.380 35.668 C 124.987 15.862,109.695 2.433,89.142 0.328 C 84.782 -0.118,45.174 -0.109,40.948 0.339 M56.609 152.083 C 56.530 152.162,56.466 152.890,56.466 153.700 L 56.466 155.172 57.628 155.172 C 59.155 155.172,59.052 154.495,59.052 164.547 C 59.052 174.599,59.155 173.922,57.628 173.922 L 56.466 173.922 56.466 175.539 L 56.466 177.155 60.884 177.155 L 65.302 177.155 65.302 175.539 L 65.302 173.922 64.139 173.922 C 62.600 173.922,62.707 174.750,62.716 162.849 C 62.720 157.145,62.722 152.357,62.719 152.209 C 62.715 151.919,56.894 151.799,56.609 152.083 M201.652 152.083 C 201.573 152.162,201.509 152.885,201.509 153.688 L 201.509 155.150 202.640 155.215 L 203.772 155.280 203.828 164.601 L 203.884 173.922 202.696 173.922 L 201.509 173.922 201.509 175.539 L 201.509 177.155 205.819 177.155 L 210.129 177.155 210.129 175.539 L 210.129 173.922 209.075 173.922 C 207.742 173.922,207.758 173.970,207.760 170.187 C 207.762 166.433,208.194 165.616,210.748 164.532 C 213.750 163.259,214.914 164.921,214.822 170.345 L 214.763 173.815 213.631 173.880 L 212.500 173.945 212.500 175.550 L 212.500 177.155 216.810 177.155 L 221.121 177.155 221.121 175.539 L 221.121 173.922 219.935 173.922 L 218.750 173.922 218.750 169.314 C 218.750 164.116,218.532 162.942,217.343 161.754 C 215.625 160.036,212.309 160.131,209.486 161.979 C 208.717 162.482,208.011 162.846,207.917 162.788 C 207.822 162.729,207.751 160.386,207.759 157.580 C 207.767 154.774,207.770 152.357,207.766 152.209 C 207.758 151.919,201.937 151.799,201.652 152.083 M293.684 152.078 C 293.602 152.160,293.534 152.885,293.534 153.689 L 293.534 155.151 294.774 155.216 L 296.013 155.280 296.013 164.547 L 296.013 173.815 294.774 173.879 L 293.534 173.944 293.534 175.550 L 293.534 177.155 297.953 177.155 L 302.371 177.155 302.371 175.539 L 302.371 173.922 301.187 173.922 L 300.004 173.922 299.948 162.985 L 299.892 152.047 296.863 151.988 C 295.196 151.955,293.766 151.996,293.684 152.078 M245.905 156.034 L 245.905 158.203 248.545 158.142 L 251.185 158.082 251.185 156.034 L 251.185 153.987 248.545 153.927 L 245.905 153.866 245.905 156.034 M108.142 158.028 L 108.082 160.884 106.735 160.948 L 105.388 161.012 105.388 162.608 L 105.388 164.204 106.735 164.268 L 108.082 164.332 108.192 169.935 C 108.307 175.826,108.368 176.192,109.344 176.831 C 109.942 177.224,112.712 177.485,114.086 177.279 L 115.086 177.129 115.086 175.633 L 115.086 174.138 114.024 174.138 C 112.149 174.138,112.049 173.850,112.118 168.662 L 112.177 164.332 113.631 164.268 L 115.086 164.204 115.086 162.608 L 115.086 161.011 113.631 160.947 L 112.177 160.884 112.117 158.028 L 112.056 155.172 110.129 155.172 L 108.202 155.172 108.142 158.028 M153.616 158.028 L 153.556 160.884 152.209 160.948 L 150.862 161.012 150.862 162.608 L 150.862 164.204 152.209 164.268 L 153.556 164.332 153.664 169.935 C 153.777 175.830,153.837 176.189,154.818 176.831 C 155.417 177.224,158.186 177.485,159.560 177.279 L 160.560 177.129 160.560 175.633 L 160.560 174.138 159.614 174.138 C 157.703 174.138,157.651 173.996,157.651 168.823 L 157.651 164.332 159.106 164.268 L 160.560 164.204 160.560 162.608 L 160.560 161.011 159.106 160.947 L 157.651 160.884 157.591 158.028 L 157.531 155.172 155.603 155.172 L 153.676 155.172 153.616 158.028 M43.825 160.880 C 35.631 162.884,35.236 174.676,43.279 177.160 C 45.624 177.885,49.019 177.675,51.078 176.680 C 52.531 175.977,54.526 173.700,54.526 172.744 C 54.526 172.229,50.564 172.675,49.818 173.275 C 47.592 175.063,43.231 174.345,42.030 171.991 C 41.097 170.163,40.711 170.272,48.330 170.208 L 55.065 170.151 55.001 168.966 C 54.679 162.951,49.798 159.419,43.825 160.880 M72.845 160.872 C 67.085 162.493,64.627 168.434,67.567 173.631 C 70.418 178.674,79.484 179.055,82.705 174.268 C 83.757 172.705,83.705 172.629,81.584 172.629 C 79.915 172.629,79.683 172.683,78.799 173.280 C 76.091 175.107,72.298 174.422,70.924 171.858 C 70.015 170.163,69.644 170.259,77.162 170.259 C 84.849 170.259,84.265 170.453,83.849 168.029 C 82.903 162.515,78.102 159.392,72.845 160.872 M91.968 161.071 C 88.230 162.640,86.250 166.524,87.038 170.741 C 88.328 177.644,96.953 179.980,102.033 174.803 C 103.237 173.576,103.236 173.569,101.456 172.157 L 100.648 171.517 99.963 172.202 C 95.331 176.834,88.732 172.422,91.370 166.458 C 92.768 163.298,96.798 162.927,99.448 165.714 C 100.000 166.295,100.226 166.379,101.226 166.379 L 102.371 166.379 102.371 163.685 L 102.371 160.991 100.887 160.991 C 99.585 160.991,99.390 161.044,99.291 161.423 C 99.182 161.841,99.143 161.836,98.036 161.261 C 96.392 160.407,93.748 160.325,91.968 161.071 M127.155 160.831 C 126.256 161.064,125.561 161.667,125.208 162.519 C 124.857 163.365,124.569 163.108,124.569 161.948 L 124.569 160.991 121.484 160.991 L 118.400 160.991 118.415 162.554 L 118.429 164.116 119.506 164.224 L 120.582 164.332 120.640 169.127 L 120.698 173.922 119.616 173.922 C 118.407 173.922,118.517 173.704,118.451 176.239 L 118.427 177.154 122.683 177.155 L 126.940 177.155 126.940 175.550 L 126.940 173.945 125.808 173.880 L 124.677 173.815 124.618 169.294 C 124.548 163.829,124.531 163.893,125.704 165.150 C 127.449 167.022,129.864 166.679,130.598 164.456 C 131.327 162.247,129.424 160.243,127.155 160.831 M138.513 160.796 C 129.911 162.821,129.627 174.540,138.115 177.163 C 146.339 179.705,152.964 170.958,148.124 163.948 C 146.357 161.389,142.027 159.969,138.513 160.796 M169.572 160.877 C 160.960 163.249,161.021 175.043,169.657 177.364 C 173.880 178.500,180.172 175.801,180.172 172.853 C 180.172 172.271,176.548 172.598,175.629 173.264 C 173.006 175.164,169.051 174.389,167.708 171.712 C 166.956 170.212,166.748 170.259,174.151 170.259 L 180.819 170.259 180.819 169.334 C 180.819 163.377,175.371 159.280,169.572 160.877 M188.554 161.057 C 184.940 162.576,183.174 165.629,183.464 169.862 C 183.955 177.021,192.289 180.124,198.009 175.277 C 199.751 173.801,199.762 173.709,198.364 172.514 L 197.168 171.492 196.267 172.346 C 192.455 175.960,187.413 174.035,187.397 168.960 C 187.382 164.073,192.107 162.151,195.760 165.559 C 196.589 166.332,196.744 166.393,197.737 166.335 L 198.815 166.272 198.875 163.631 L 198.936 160.991 197.446 160.991 C 196.124 160.991,195.942 161.041,195.840 161.434 C 195.727 161.866,195.700 161.863,194.575 161.272 C 192.944 160.414,190.309 160.321,188.554 161.057 M233.062 160.954 C 232.458 161.162,231.464 161.693,230.852 162.132 C 229.474 163.122,229.526 163.129,229.526 161.961 L 229.526 160.991 226.401 160.991 L 223.276 160.991 223.276 162.596 L 223.276 164.202 224.407 164.267 L 225.539 164.332 225.539 169.073 L 225.539 173.815 224.407 173.880 L 223.276 173.945 223.276 175.550 L 223.276 177.155 227.596 177.155 L 231.915 177.155 231.852 175.593 L 231.789 174.030 230.711 173.922 L 229.634 173.815 229.575 170.234 L 229.516 166.654 230.407 165.849 C 232.060 164.355,233.823 163.872,235.136 164.551 C 236.284 165.145,236.422 165.734,236.422 170.032 L 236.422 173.922 235.345 173.922 L 234.267 173.922 234.267 175.539 L 234.267 177.155 238.524 177.156 L 242.780 177.156 242.709 175.539 L 242.638 173.922 241.596 173.922 L 240.553 173.922 240.462 169.127 C 240.363 163.922,240.224 163.133,239.206 161.973 C 238.019 160.621,235.320 160.173,233.062 160.954 M259.788 160.881 C 254.064 162.688,252.252 170.736,256.581 175.127 C 259.052 177.633,263.179 178.312,266.595 176.775 C 268.368 175.977,271.039 173.304,270.097 173.270 C 270.008 173.267,269.514 172.879,269.000 172.407 L 268.064 171.550 267.060 172.434 C 263.498 175.573,258.857 174.264,258.266 169.953 C 257.528 164.565,262.648 161.832,266.508 165.553 C 267.343 166.358,267.454 166.401,268.555 166.338 L 269.720 166.272 269.780 163.631 L 269.841 160.991 268.218 160.991 C 266.739 160.991,266.595 161.030,266.595 161.422 C 266.595 161.956,266.487 161.959,265.766 161.447 C 264.531 160.569,261.642 160.296,259.788 160.881 M276.996 160.963 C 269.409 163.633,269.651 174.944,277.345 177.279 C 279.443 177.916,282.402 177.467,283.906 176.284 C 284.652 175.697,284.914 175.756,284.914 176.509 L 284.914 177.155 288.039 177.155 L 291.164 177.155 291.164 175.539 L 291.164 173.922 290.109 173.922 C 288.751 173.922,288.793 174.078,288.793 169.073 C 288.793 164.068,288.751 164.224,290.109 164.224 L 291.164 164.224 291.164 162.608 L 291.164 160.991 288.039 160.991 L 284.914 160.991 284.914 161.746 C 284.914 162.597,284.719 162.688,284.178 162.089 C 282.995 160.783,279.199 160.187,276.996 160.963 M244.828 162.608 L 244.828 164.224 246.013 164.224 L 247.198 164.224 247.198 169.073 L 247.198 173.922 246.013 173.922 L 244.828 173.922 244.828 175.539 L 244.828 177.155 249.246 177.155 L 253.664 177.155 253.664 175.539 L 253.664 173.922 252.478 173.922 L 251.293 173.922 251.268 167.726 C 251.254 164.318,251.258 161.409,251.277 161.261 C 251.304 161.056,250.539 160.991,248.070 160.991 L 244.828 160.991 244.828 162.608 M49.280 164.712 C 50.077 165.264,51.078 166.659,51.078 167.217 C 51.078 167.386,49.677 167.457,46.336 167.457 C 41.323 167.457,41.355 167.464,41.899 166.422 C 43.136 164.055,47.031 163.152,49.280 164.712 M77.764 164.447 C 78.954 165.172,79.957 166.446,79.957 167.231 C 79.957 167.382,78.382 167.457,75.216 167.457 C 69.873 167.457,69.976 167.497,71.185 165.912 C 72.621 164.030,75.886 163.302,77.764 164.447 M143.565 164.770 C 147.534 167.559,145.621 174.128,140.841 174.128 C 135.403 174.128,134.128 166.261,139.224 164.154 C 140.156 163.769,142.643 164.122,143.565 164.770 M174.580 164.446 C 175.500 164.915,176.724 166.406,176.724 167.058 C 176.724 167.459,167.784 167.712,167.394 167.322 C 166.991 166.919,168.488 165.016,169.720 164.367 C 170.709 163.845,173.492 163.890,174.580 164.446 M282.642 164.747 C 283.509 165.254,283.972 165.776,284.667 167.026 C 286.750 170.772,281.706 175.842,278.125 173.601 C 272.519 170.093,276.949 161.410,282.642 164.747 M118.603 189.868 C 116.061 190.250,115.476 191.246,115.314 195.474 L 115.194 198.599 113.847 198.663 L 112.500 198.727 112.500 200.323 L 112.500 201.919 113.847 201.983 L 115.194 202.047 115.194 206.789 L 115.194 211.530 113.847 211.594 L 112.500 211.658 112.500 213.265 L 112.500 214.871 117.251 214.871 L 122.002 214.871 121.938 213.308 L 121.875 211.746 120.528 211.682 L 119.181 211.617 119.181 206.779 L 119.181 201.940 120.582 201.940 L 121.983 201.940 121.983 200.323 L 121.983 198.707 120.582 198.707 L 119.181 198.707 119.181 196.270 C 119.181 193.302,119.307 193.060,120.936 192.896 L 122.091 192.780 122.091 191.272 L 122.091 189.763 120.905 189.731 C 120.253 189.714,119.217 189.775,118.603 189.868 M286.728 190.594 C 286.666 190.754,286.645 191.506,286.681 192.264 L 286.746 193.642 287.880 193.707 L 289.013 193.773 288.957 202.759 L 288.901 211.746 287.760 211.811 L 286.620 211.877 286.683 213.428 L 286.746 214.978 290.948 214.978 L 295.151 214.978 295.214 213.428 L 295.277 211.877 294.136 211.811 L 292.996 211.746 292.937 208.160 L 292.878 204.575 293.966 203.596 C 296.048 201.724,297.956 201.524,299.234 203.043 L 299.794 203.708 299.735 207.727 L 299.677 211.746 298.536 211.811 L 297.395 211.877 297.458 213.428 L 297.522 214.978 301.778 215.037 L 306.034 215.095 306.034 213.486 L 306.034 211.877 305.011 211.811 L 303.987 211.746 303.856 207.004 C 303.785 204.397,303.648 201.972,303.553 201.616 C 302.625 198.153,298.139 197.257,294.497 199.808 C 293.839 200.269,293.207 200.647,293.094 200.647 C 292.969 200.647,292.888 198.618,292.888 195.474 L 292.888 190.302 289.864 190.302 C 287.518 190.302,286.815 190.367,286.728 190.594 M102.265 191.807 C 102.183 191.940,102.116 192.892,102.116 193.923 L 102.115 195.797 104.729 195.858 L 107.343 195.919 107.282 193.811 L 107.220 191.703 104.817 191.634 C 103.209 191.589,102.365 191.646,102.265 191.807 M126.437 191.739 C 126.358 191.818,126.293 192.790,126.293 193.900 L 126.293 195.918 128.933 195.858 L 131.573 195.797 131.636 193.876 C 131.682 192.484,131.622 191.906,131.421 191.778 C 131.088 191.567,126.643 191.532,126.437 191.739 M189.318 191.875 C 189.256 192.037,189.234 192.986,189.269 193.984 L 189.332 195.797 191.918 195.797 L 194.504 195.797 194.504 193.750 L 194.504 191.703 191.968 191.642 C 189.981 191.594,189.407 191.645,189.318 191.875 M91.379 195.797 L 91.379 198.707 89.978 198.707 L 88.578 198.707 88.578 200.323 L 88.578 201.940 89.953 201.940 L 91.328 201.940 91.429 207.489 C 91.535 213.342,91.626 213.913,92.554 214.521 C 93.199 214.943,96.225 215.236,97.490 214.998 L 98.276 214.851 98.276 213.352 L 98.276 211.853 97.210 211.853 C 95.515 211.853,95.474 211.725,95.474 206.418 L 95.474 201.940 96.875 201.940 L 98.276 201.940 98.276 200.323 L 98.276 198.707 96.875 198.707 L 95.474 198.707 95.474 195.797 L 95.474 192.888 93.427 192.888 L 91.379 192.888 91.379 195.797 M177.802 195.797 L 177.802 198.707 176.401 198.707 L 175.000 198.707 175.000 200.323 L 175.000 201.940 176.401 201.940 L 177.802 201.940 177.818 207.274 C 177.836 212.989,177.954 213.783,178.895 214.481 C 179.510 214.938,182.175 215.223,183.698 214.994 L 184.698 214.844 184.698 213.349 L 184.698 211.853 183.654 211.853 C 181.846 211.853,181.803 211.730,181.795 206.504 L 181.789 202.047 183.244 201.984 L 184.698 201.920 184.698 200.323 L 184.698 198.727 183.244 198.663 L 181.789 198.599 181.729 195.744 L 181.669 192.888 179.735 192.888 L 177.802 192.888 177.802 195.797 M42.780 198.657 C 39.975 199.886,38.404 201.666,37.745 204.362 C 35.538 213.385,45.744 219.019,52.569 212.545 L 53.772 211.405 52.694 210.452 C 51.382 209.292,51.245 209.281,50.163 210.259 C 46.160 213.876,40.816 211.148,41.448 205.810 C 41.958 201.505,46.400 200.133,49.751 203.246 C 50.626 204.059,50.761 204.112,51.799 204.052 L 52.909 203.987 52.970 201.347 L 53.031 198.707 51.540 198.707 C 50.231 198.707,50.037 198.759,49.938 199.138 C 49.828 199.556,49.790 199.551,48.683 198.976 C 47.208 198.210,44.175 198.046,42.780 198.657 M61.876 198.605 C 54.438 200.683,53.214 210.788,59.974 214.318 C 63.233 216.021,68.353 215.535,70.841 213.287 C 71.730 212.484,72.746 210.708,72.523 210.347 C 72.226 209.867,69.045 210.091,68.389 210.638 C 65.409 213.125,60.448 211.991,59.784 208.671 L 59.644 207.974 66.340 207.974 C 70.022 207.974,73.076 207.901,73.126 207.813 C 73.392 207.342,72.790 204.150,72.204 202.921 C 70.483 199.316,66.015 197.448,61.876 198.605 M83.120 198.586 C 82.666 198.749,82.269 198.916,82.237 198.956 C 82.205 198.997,81.937 199.393,81.641 199.837 C 81.021 200.768,80.819 200.694,80.819 199.533 L 80.819 198.707 77.694 198.707 L 74.569 198.707 74.569 200.312 L 74.569 201.917 75.700 201.982 L 76.832 202.047 76.832 206.789 L 76.832 211.530 75.700 211.595 L 74.569 211.660 74.569 213.266 L 74.569 214.871 78.889 214.871 L 83.209 214.871 83.145 213.308 L 83.082 211.746 82.004 211.638 L 80.927 211.530 80.868 206.912 C 80.806 201.937,80.892 201.501,81.696 202.736 C 83.186 205.027,86.594 204.193,86.788 201.491 C 86.953 199.190,85.231 197.827,83.120 198.586 M140.048 198.789 C 136.744 200.148,135.036 202.873,135.032 206.789 C 135.026 214.719,143.937 218.214,149.933 212.634 L 151.185 211.468 150.754 210.990 C 150.517 210.728,149.975 210.237,149.550 209.900 L 148.777 209.287 147.826 210.133 C 144.381 213.199,139.876 212.043,139.010 207.871 C 137.921 202.627,143.195 199.567,147.168 203.138 C 148.200 204.066,148.324 204.119,149.294 204.038 L 150.323 203.952 150.384 201.329 L 150.444 198.707 148.929 198.707 C 147.557 198.707,147.414 198.748,147.414 199.138 C 147.414 199.681,147.471 199.690,146.013 198.922 C 144.380 198.063,141.945 198.009,140.048 198.789 M158.254 198.677 C 151.329 201.070,150.796 211.535,157.444 214.579 C 159.854 215.683,163.063 215.449,165.024 214.029 C 165.997 213.324,166.164 213.358,166.164 214.260 L 166.164 214.871 169.289 214.871 L 172.414 214.871 172.414 213.266 L 172.414 211.660 171.282 211.595 L 170.151 211.530 170.151 206.789 L 170.151 202.047 171.282 201.982 L 172.414 201.917 172.414 200.312 L 172.414 198.707 169.289 198.707 L 166.164 198.707 166.164 199.318 C 166.164 200.202,165.982 200.263,165.180 199.652 C 163.407 198.299,160.523 197.893,158.254 198.677 M204.219 198.632 C 195.321 201.363,196.350 213.588,205.606 215.116 C 216.369 216.894,220.271 201.914,209.887 198.682 C 208.306 198.190,205.733 198.167,204.219 198.632 M227.122 198.576 C 226.123 198.933,224.512 199.873,224.148 200.311 C 223.681 200.874,223.491 200.692,223.491 199.677 L 223.491 198.707 220.366 198.707 L 217.241 198.707 217.241 200.323 L 217.241 201.940 218.319 201.940 L 219.397 201.940 219.397 206.789 L 219.397 211.638 218.319 211.638 L 217.241 211.638 217.241 213.254 L 217.241 214.871 221.453 214.871 L 225.665 214.871 225.602 213.308 L 225.539 211.746 224.515 211.680 L 223.491 211.614 223.491 208.006 L 223.491 204.398 224.300 203.623 C 225.930 202.059,227.818 201.543,229.112 202.307 C 230.253 202.981,230.405 203.662,230.339 207.802 L 230.280 211.530 229.203 211.638 L 228.125 211.746 228.062 213.308 L 227.998 214.871 232.328 214.871 L 236.657 214.871 236.593 213.308 L 236.530 211.746 235.453 211.638 L 234.375 211.530 234.265 206.466 C 234.147 201.065,234.007 200.362,232.835 199.321 C 231.715 198.325,228.866 197.953,227.122 198.576 M256.452 198.570 C 253.812 199.282,252.694 200.695,252.694 203.321 C 252.694 206.304,254.144 207.591,258.297 208.294 C 262.784 209.053,263.546 209.449,263.271 210.880 C 262.776 213.453,257.576 212.868,256.117 210.075 C 255.823 209.512,255.731 209.483,254.251 209.483 L 252.694 209.483 252.741 212.123 C 252.767 213.575,252.791 214.836,252.795 214.925 C 252.816 215.405,255.401 215.079,255.594 214.572 L 255.790 214.057 257.690 214.780 C 262.530 216.621,267.198 214.527,267.232 210.500 C 267.260 207.333,265.511 206.064,259.712 205.042 C 257.125 204.586,256.250 204.067,256.250 202.988 C 256.250 200.511,260.840 200.559,262.415 203.053 L 262.949 203.899 264.395 203.835 L 265.841 203.772 265.841 201.322 L 265.841 198.873 264.567 198.844 C 263.520 198.820,263.276 198.882,263.195 199.192 C 263.074 199.653,262.742 199.671,262.138 199.249 C 260.940 198.409,258.242 198.087,256.452 198.570 M274.318 198.676 C 271.209 199.704,269.323 201.949,268.765 205.287 C 267.395 213.479,276.354 218.575,282.954 213.357 C 284.900 211.820,284.971 211.544,283.715 210.437 C 282.419 209.295,282.380 209.292,281.454 210.256 C 277.991 213.861,272.645 211.759,272.636 206.789 C 272.628 201.944,277.375 199.977,280.946 203.345 C 281.706 204.062,281.843 204.110,282.961 204.051 L 284.159 203.987 284.159 201.435 L 284.159 198.882 282.651 198.862 C 281.398 198.846,281.131 198.904,281.073 199.206 C 280.983 199.674,280.964 199.672,279.593 199.001 C 278.046 198.244,276.006 198.119,274.318 198.676 M314.520 198.597 C 309.250 199.744,306.408 204.549,307.955 209.701 C 310.018 216.576,321.293 217.654,324.403 211.274 C 324.843 210.371,324.796 210.345,322.731 210.345 C 321.090 210.345,320.906 210.391,320.145 210.996 C 317.464 213.127,312.871 212.064,311.829 209.073 C 311.452 207.993,311.577 207.973,318.642 207.988 L 325.108 208.001 325.180 207.533 C 325.998 202.208,320.214 197.359,314.520 198.597 M337.124 198.579 C 336.091 198.915,334.052 200.159,334.052 200.454 C 334.052 201.169,333.420 200.516,333.364 199.742 L 333.297 198.838 330.280 198.840 L 327.263 198.842 327.200 200.391 L 327.136 201.940 328.072 201.940 C 329.526 201.940,329.526 201.938,329.526 206.814 C 329.526 212.032,329.573 211.853,328.200 211.853 L 327.136 211.853 327.200 213.416 L 327.263 214.978 331.412 215.037 C 333.693 215.069,335.564 215.021,335.569 214.929 C 335.573 214.838,335.597 214.108,335.623 213.308 L 335.668 211.853 334.537 211.853 L 333.405 211.853 333.405 208.054 L 333.405 204.254 334.322 203.337 C 335.519 202.140,336.673 201.771,337.943 202.182 C 339.643 202.730,339.763 203.097,339.763 207.720 L 339.763 211.746 338.622 211.811 L 337.482 211.877 337.545 213.428 L 337.608 214.978 341.810 214.978 L 346.013 214.978 346.076 213.416 L 346.140 211.853 344.945 211.853 L 343.750 211.853 343.750 207.847 C 343.750 203.269,343.660 203.498,345.871 202.440 C 349.100 200.897,350.256 202.402,350.167 208.033 L 350.108 211.746 348.967 211.811 L 347.826 211.877 347.889 213.428 L 347.953 214.978 352.101 215.037 L 356.250 215.096 356.250 213.486 L 356.250 211.877 355.226 211.811 L 354.203 211.746 354.092 206.789 C 353.986 202.056,353.957 201.783,353.445 200.755 C 351.940 197.728,347.294 197.468,344.285 200.242 C 343.415 201.044,343.253 201.121,343.079 200.811 C 341.953 198.798,339.395 197.839,337.124 198.579 M365.841 198.430 C 356.470 199.724,355.283 212.369,364.275 215.104 C 368.736 216.460,375.216 213.774,375.216 210.569 C 375.216 210.269,371.408 210.269,371.223 210.569 C 369.645 213.122,363.477 212.229,362.513 209.308 C 362.061 207.937,361.872 207.974,369.209 207.974 L 375.893 207.974 375.749 206.735 C 375.206 202.068,373.029 199.442,368.997 198.587 C 367.571 198.285,367.071 198.260,365.841 198.430 M100.862 200.313 L 100.862 201.918 102.101 201.983 L 103.341 202.047 103.341 206.789 L 103.341 211.530 102.155 211.638 L 100.970 211.746 100.907 213.308 L 100.843 214.871 105.271 214.871 L 109.698 214.871 109.698 213.254 L 109.698 211.638 108.513 211.638 L 107.328 211.638 107.328 205.172 L 107.328 198.707 104.095 198.707 L 100.862 198.707 100.862 200.313 M125.139 199.084 C 125.080 199.291,125.050 199.995,125.070 200.647 L 125.108 201.832 126.351 201.897 L 127.594 201.961 127.536 206.746 L 127.478 211.530 126.293 211.638 L 125.108 211.746 125.118 213.254 L 125.128 214.763 129.536 214.763 L 133.944 214.763 133.944 213.254 L 133.944 211.746 132.813 211.681 L 131.681 211.615 131.681 205.161 L 131.681 198.707 128.463 198.707 C 125.582 198.707,125.233 198.746,125.139 199.084 M188.147 200.313 L 188.147 201.918 189.386 201.983 L 190.625 202.047 190.625 206.789 L 190.625 211.530 189.386 211.595 L 188.147 211.659 188.147 213.270 L 188.147 214.880 192.511 214.821 L 196.875 214.763 196.875 213.254 L 196.875 211.746 195.744 211.681 L 194.612 211.615 194.612 205.161 L 194.612 198.707 191.379 198.707 L 188.147 198.707 188.147 200.313 M66.726 202.044 C 67.836 202.507,69.391 204.443,69.069 204.963 C 68.992 205.088,67.117 205.172,64.440 205.172 C 59.637 205.172,59.483 205.136,60.007 204.123 C 61.121 201.968,64.232 201.006,66.726 202.044 M209.666 202.432 C 213.717 205.112,211.902 211.853,207.130 211.853 C 202.135 211.853,200.296 205.100,204.540 202.341 C 205.827 201.505,208.332 201.549,209.666 202.432 M318.163 201.953 C 319.508 202.326,321.121 204.017,321.121 205.054 C 321.121 205.345,320.530 205.388,316.510 205.388 C 311.397 205.388,311.327 205.367,312.114 204.073 C 313.293 202.134,315.735 201.278,318.163 201.953 M369.734 202.379 C 370.655 202.948,371.523 204.054,371.601 204.756 L 371.659 205.280 367.149 205.339 C 362.028 205.405,361.988 205.392,362.806 203.997 C 364.070 201.840,367.548 201.028,369.734 202.379 M164.071 202.601 C 168.900 205.799,165.259 213.424,159.832 211.479 C 156.026 210.114,155.619 204.465,159.180 202.428 C 160.532 201.655,162.762 201.734,164.071 202.601 " stroke="none" fill="#6593ab" fill-rule="evenodd"></path><path id="path1" d="M314.547 0.200 C 314.310 0.295,313.534 0.442,312.823 0.528 C 304.305 1.553,294.291 6.888,288.902 13.272 C 288.310 13.974,287.650 14.741,287.434 14.978 C 281.703 21.293,277.997 33.383,278.848 42.995 C 280.522 61.905,293.800 76.114,312.823 79.354 C 313.613 79.488,323.557 79.631,338.362 79.720 L 362.608 79.866 363.777 80.356 C 374.155 84.704,372.794 99.513,361.853 101.279 C 359.887 101.597,184.934 101.596,182.974 101.279 C 176.663 100.257,171.812 96.080,169.530 89.703 L 168.858 87.823 168.858 65.409 C 168.858 44.099,168.878 42.932,169.262 41.703 C 171.252 35.333,175.768 31.041,182.112 29.492 C 184.212 28.979,226.381 29.075,228.233 29.597 C 236.540 31.938,241.164 38.472,241.164 47.872 L 241.164 50.409 242.295 50.474 C 242.918 50.509,245.585 50.511,248.222 50.477 L 253.017 50.415 253.017 47.775 C 253.017 31.461,242.935 19.476,227.517 17.462 C 224.759 17.101,184.239 17.181,181.681 17.552 C 169.540 19.312,160.644 27.505,157.483 39.837 L 157.004 41.703 157.004 65.302 L 157.004 88.901 157.612 91.235 C 160.527 102.426,168.069 109.838,179.526 112.771 L 181.358 113.240 270.474 113.308 C 363.840 113.379,363.067 113.386,366.452 112.400 C 387.182 106.357,388.464 77.596,368.368 69.412 C 364.761 67.943,366.503 68.035,339.440 67.883 C 312.660 67.732,313.873 67.792,309.760 66.413 C 282.408 57.235,285.212 18.106,313.633 12.357 C 315.209 12.038,318.016 11.988,338.524 11.915 L 361.638 11.832 361.638 5.916 L 361.638 0.000 338.308 0.014 C 325.477 0.021,314.784 0.105,314.547 0.200 " stroke="none" fill="#74bb48" fill-rule="evenodd"></path></g></svg>
